<svg version="1.0" xmlns="http://www.w3.org/2000/svg" width="800" height="661.333" viewBox="0 0 600 496">
  <path
    d="M3.4 2.3c22.9 17 34.6 37.1 37.6 65 2.8 24.9-1.4 47.9-23.5 129.2C10.4 222.6 5 247.4 2.3 267c-2.1 14.9-2.3 60.9-.4 86 4.7 62.4 16.5 110.1 33.7 136.2l3.8 5.8H382l-3.5-4.9c-4.5-6.2-12.5-23.1-16.4-34.7-10.8-32-17-72.8-19.2-127.3-1.2-28.6-.5-47.8 2.5-67.6.8-5 1.3-9.1 1.2-9.2-.1-.2-6.1 2.9-13.2 6.7-24 13-40 18.7-47.1 16.8-4-1-6.5-5.3-5.5-9.1 1.3-4.7 6.8-11.2 15.3-18.1 7.8-6.3 40.7-28.6 54.5-37l6-3.7 9.2-33.7c10.5-38.6 14.6-56.9 16.8-75.6 4.9-40.4-5.5-70-32.1-91.2L342.6 0H171.5L.5.1l2.9 2.2zm180.4 120.5c6.6 10.2 15.1 28 18.5 38.8 4.6 14.4 6 24.5 6.1 43.9.2 19.9 1.2 24.5 6.1 26.7 2.2 1 3 .8 5.3-.9 4.1-3 7-7.9 9.5-15.7 1.8-6 2.1-9.2 2-20.6-.1-7.4-.5-15.8-1-18.6-.7-3.5-.6-6.3.1-8.5 1-3 1.6-3.4 5-3.7 3.6-.3 4.3.1 10 6 11.7 12 28.6 41.5 34.4 59.8 4.8 15.4 4.8 15.3 1.1 20l-3.3 4.1-2.7-9.8c-3.5-12.3-9.3-26.7-15.4-37.9-4.6-8.5-17.8-28.9-19.3-29.8-.4-.2-.7 7.8-.7 17.7 0 16.3-.2 18.9-2.3 25.2-4.6 13.9-12.2 21.5-21.5 21.5-5.3 0-9.7-3.1-12.6-8.9-2.9-5.8-3.4-9.5-3.6-29.6-.2-17.6-.4-19.8-3.2-30.5-1.7-6.3-4.8-15.6-7-20.6-3.9-9.1-13.2-25.8-13.9-25.1-.2.2-1.1 3.9-2 8.3-3.6 17.3-13.3 38.9-24.7 55.1-3.4 4.7-12.5 15.3-20.2 23.4-20.9 21.8-29.6 35.1-36.1 54.9-2.6 7.8-2.8 9.7-2.8 24.5-.1 19.1 1.4 25.9 9.6 42.4 6.1 12.5 14.4 21.5 25.3 27.8 6.6 3.8 19.2 9.3 21.3 9.3.5 0-.6-2.9-2.4-6.4-5.1-9.5-7.6-20.2-7.7-32.1-.1-11.8 1.5-18.6 7.9-33.2 5.8-13.5 10.4-21.2 15.3-25.6 8.7-7.9 15.5-5.5 25.1 8.7 4.8 7.2 22.9 25.6 30.2 30.7 10 7 13.4 10.8 15.2 16.9 3 10.1 1.3 25.3-4.3 38.2-1.1 2.7-1.9 4.8-1.7 4.8.2 0 6.6-2.9 14.1-6.4 7.6-3.6 14.4-6.2 15.1-5.9.8.3 1.7 1.7 2.1 3 .7 3.2-1.1 4.8-12.2 10.2-13.7 6.8-32 12-36.5 10.6-3.3-1-2.3-3.8 3.1-9 8.7-8.5 12.9-19.6 12.9-33.7 0-11.1-1.2-13.4-10.9-20.2-10.3-7.2-24.7-21.5-33.5-33.4-3.8-5-7.5-9.3-8.3-9.6-3.8-1.5-8.3 3.9-14.8 17.7-10 21-12.1 32.4-9.1 47.8 2.1 10.3 4.9 16.6 11 24.3 9.4 12 7.2 16.6-6.4 13.6-14.7-3.3-34.3-14.1-45-24.9-19-19.2-28.6-52.4-23.5-81.4 4.1-23.5 15-42.6 38.5-67 7.7-8.1 16.4-18 19.4-22 17.8-24 27.6-51.2 27.6-76.2v-10.8l5.7 6.9c3.1 3.8 8.1 10.6 11.1 15.2z" />
  <path
    d="M584.8 87.5c-12.1 6.2-71.2 38.4-97.6 53.2C381.3 200 305 247.8 290.6 263.9c-8.3 9.2 22.3-3.9 63-27 70.3-39.9 236.3-145 237.2-150.2.4-2.2-.4-2.1-6 .8zM472 421.9v12.8l-6.6 3.9C446 450 438.2 471.9 447.3 490l2.2 4.5 45.3.3 45.3.2 2.7-5.7c2.4-5.1 2.7-7 2.7-15.8 0-8.9-.3-10.6-2.9-15.8-3.5-7.2-11.4-15.4-18.9-19.7l-5.7-3.2V409h-46v12.9z" />
</svg>