<svg width="180" height="151" viewBox="0 0 180 151" fill="none" xmlns="http://www.w3.org/2000/svg">
  <g filter="url(#filter0_i_8_119)">
    <path
      d="M65.6515 0L66.0249 2.1689L67.668 2.61763L66.6971 1.27142L65.6515 0ZM66.1743 3.73948C67.0162 8.68932 67.7881 13.6509 68.4896 18.6226L69.1618 18.473C69.6846 18.2486 69.9087 18.1738 71.1784 16.7528C74.4647 13.2377 74.2407 13.5369 74.166 13.0882C74.0913 12.789 73.9419 12.4898 73.4938 12.0411L72.8216 11.368L71.9253 8.22684L70.2822 5.98316L68.5643 3.81426L67.9668 3.73948L66.6971 3.5899C66.1743 3.51511 66.0996 3.5899 66.1743 3.73948Z"
      fill="#CCCC33" />
    <path
      d="M72.8216 9.79742C72.7469 9.947 72.8216 10.1714 72.971 10.6949C73.2697 11.4428 73.3444 11.4428 74.2407 12.2655C74.7635 12.6394 75.0622 12.789 75.1369 12.7142L74.166 11.2184L73.0456 9.72264C72.971 9.64785 72.8963 9.72263 72.8216 9.79742ZM132.647 14.3596L132.722 14.8831L132.797 15.3318L132.05 16.0797C131.303 16.7528 131.303 16.8276 130.481 18.473C129.809 20.0436 129.66 20.268 129.286 20.5671C128.689 20.9411 128.689 21.0158 128.689 21.6142C128.689 21.9881 128.614 22.2125 128.465 22.5116L128.241 22.8108L127.568 21.9881L126.971 21.1654C126.822 21.0158 126.373 21.315 126.224 21.5394C126.149 21.7637 126 21.8385 125.701 21.8385C124.88 21.9881 124.432 22.2873 123.909 22.8856C123.386 23.6335 123.311 23.7831 123.386 24.6805C123.461 25.4284 123.61 25.6528 124.282 26.1015L124.73 26.4007L125.104 26.0267C125.253 25.8024 125.477 25.578 125.627 25.578C125.776 25.578 125.776 25.6528 125.627 26.0267L125.477 26.6251C125.477 26.8494 126.598 29.0931 126.822 29.3175C126.971 29.3923 126.896 29.4671 126.373 30.0654L125.776 30.8881L126.075 31.3368L126.299 31.7107L126 31.7855L125.701 32.0099L126.224 32.3091L127.195 32.9074C127.568 33.2813 127.568 33.3561 127.494 33.5805L127.344 33.8796L126.747 33.4309C126.149 32.9822 126.149 32.9822 125.851 33.1317L125.552 33.3561L125.776 33.8796C126 34.4032 126 34.4032 125.851 34.7023C125.701 34.9267 125.701 35.0015 125.851 35.3006L126.149 35.5998L127.046 35.7494L127.867 35.9737L128.39 35.5998C128.838 35.2259 129.062 35.1511 129.585 35.1511L130.631 34.8519L131.004 34.5527L131.228 34.8519C131.378 35.0763 131.378 35.0763 130.78 35.4502L130.257 35.7494L131.004 35.899C131.527 35.9737 131.676 35.9737 132.199 35.7494C132.871 35.4502 132.946 35.4502 133.021 35.0015L133.17 34.5527L133.32 30.5889L132.349 30.9629L131.378 31.262C131.303 31.1124 132.274 30.215 132.573 30.1402C132.797 30.1402 132.946 29.9158 133.17 29.6914L133.394 29.3175L133.544 23.2595L133.693 15.4814V13.7613L132.647 14.3596Z"
      fill="#CCCC33" />
    <path
      d="M129.959 14.9579C129.66 15.1823 129.66 15.1823 129.361 15.0327C129.137 14.8083 129.062 14.8083 128.763 15.0327C128.315 15.2571 126.523 17.5007 126.149 18.2486L126 18.6974L126.598 19.2209L127.568 19.9688L128.017 20.1932L128.838 19.2957L129.585 18.3982L129.286 18.2486C128.763 18.0243 128.689 17.8747 129.212 17.3512C129.585 16.9024 129.734 16.6033 130.033 15.7806L130.332 14.7335L129.959 14.9579ZM71.9253 18.0991C71.1784 18.6226 70.7303 18.847 70.3568 18.9217C69.9087 18.9965 69.834 19.0713 69.7593 19.2957L69.6847 19.5948L70.2075 19.7444C70.6556 19.8192 70.8797 19.8192 71.5519 19.6696C72.2241 19.5201 72.3734 19.5201 72.6722 19.6696L73.1203 19.8192L74.0166 19.1461L74.9876 18.3234L74.7635 18.0243C74.6888 17.8747 74.4647 17.7251 73.8672 17.6503L72.971 17.426L71.9253 18.0991ZM79.693 20.8663C79.1701 21.0906 78.722 21.4646 78.7967 21.6142C78.7967 21.689 80.0664 21.7637 80.2905 21.689C80.5892 21.6142 80.5892 21.689 80.7386 22.0629C80.7386 22.3621 80.9627 22.736 81.1867 22.9604C81.5602 23.4839 81.5602 23.4839 80.8133 23.3343C80.3652 23.1847 80.2158 23.11 79.9917 22.736L79.6183 22.2873L76.332 24.0822L76.4813 25.3536L76.7054 26.5503L76.4813 27.7469C76.0332 29.9158 75.8091 30.5889 75.1369 31.8603L74.4647 33.057L74.6141 35.0015L74.2407 35.1511C73.7925 35.3754 73.7925 35.4502 73.9419 35.899C74.166 36.3477 74.166 36.2729 72.971 36.4973C72.3735 36.5721 72.2241 36.6469 72.2988 36.7216L72.3735 37.0956C72.4481 37.2452 73.4938 38.2174 74.7635 39.2645L77.0788 41.209L77.8257 41.2838L79.917 41.4334L81.2614 41.5082L81.4108 41.8821L81.5602 42.4804L82.7552 43.3031L83.8008 43.9762L84.0249 43.6771L86.2656 41.1342L88.2822 38.8158L88.6556 38.8905L88.9544 39.0401L89.0291 38.367C89.2531 37.0956 89.1784 37.1704 90.1494 36.7964C90.9007 36.4494 91.5455 35.907 92.0166 35.2259C92.0166 35.1511 85.2199 25.952 85.0705 25.8772C84.9959 25.8024 84.6971 26.0267 84.3983 26.4007L83.8755 26.9242L83.5021 26.6251C82.6805 25.8024 82.7552 25.8772 82.1577 26.1015L81.5602 26.3259L81.0374 25.952L80.2905 25.578C80.1411 25.578 79.917 25.2041 79.917 24.8301L80.4398 24.531L80.7386 24.9797L81.0374 25.5032H81.7095C82.7552 25.5032 84.1743 25.0545 84.1743 24.6805L82.7552 22.6612C80.9627 20.268 80.888 20.268 79.693 20.8663Z"
      fill="#CCCC33" />
    <path
      d="M72 22.5864L71.4772 23.0352H70.2822C69.2365 23.0352 69.1618 23.0352 69.1618 23.1847C69.8057 27.0953 70.4281 31.0093 71.029 34.9267C71.1037 35.3006 71.4772 34.7771 72.4481 32.9074C73.1203 31.636 73.5685 30.7385 73.9419 30.3645L74.4647 29.7662L74.3154 29.3175L74.0913 28.7192L74.7635 28.1956L75.4357 27.7469L75.2116 27.5973L74.6141 27.0738L74.2407 26.8494L74.6888 26.0267L75.0622 25.2789L74.8382 24.6805C74.6888 24.0822 74.5394 24.0074 72.7469 22.3621C72.5975 22.2125 72.5228 22.2125 72 22.5864ZM119.353 29.841L119.129 30.215L119.577 30.1402C119.876 30.1402 120.1 30.0654 120.1 29.9906L119.876 29.6914L119.577 29.3923L119.353 29.841ZM118.681 31.0376L113.826 39.8628C112.449 43.007 110.693 45.9707 108.598 48.688L107.776 48.8375C107.178 48.9123 107.178 48.9123 107.029 49.1367C106.954 49.4359 107.029 49.5106 107.328 49.8098C107.627 50.109 107.776 50.4081 107.925 51.0812L108.299 52.1283C108.448 52.2779 108.672 53.1005 108.523 53.0258L108.075 52.7266C107.701 52.5022 107.627 52.3527 107.253 51.2308C106.805 49.735 106.432 48.9123 106.207 48.9123C105.134 48.9765 104.063 49.0762 102.996 49.2115H102.622L97.8423 42.9292L93.1369 36.5721H92.6888C92.0913 36.5721 91.195 37.4695 90.1494 39.0401C89.4025 40.3115 89.3278 40.3863 88.9544 40.3863L88.3568 40.5359C88.2075 40.5359 87.6847 41.1342 86.7884 42.1065C84.9959 44.2006 85.0705 43.9762 85.444 44.3502L85.7427 45.0981L85.8174 45.6216H87.3112L87.4606 45.9955C87.5353 46.3695 87.6847 46.5191 88.5809 47.267C89.6266 48.0896 89.7013 48.1644 90.1494 48.1644H90.6722L93.2116 50.4829L95.6764 52.8014H96.4979L97.693 52.6518C97.917 52.6518 98.1411 52.6518 98.2905 52.8014C98.4398 52.8762 98.4398 52.951 98.2158 53.2501L97.9917 53.6241L99.0374 54.7459L100.008 55.8678L99.9336 56.4661C99.9336 56.9148 99.9336 57.1392 100.158 57.6627C100.307 58.261 100.382 58.3358 100.979 58.7845C101.651 59.1585 101.726 59.1585 103.593 59.5324L105.685 59.8316L106.581 58.8593C107.104 58.261 107.627 57.8123 108.075 57.5131L108.747 57.0644L108.598 55.4938C108.523 54.0728 108.523 53.9232 108.672 53.6989C108.822 53.4745 108.822 53.4745 108.896 54.2972V55.0451L109.27 55.1199C109.494 55.1199 109.643 55.0451 110.166 54.372C110.539 53.9232 110.913 53.6241 111.062 53.5493C111.361 53.4745 111.436 53.3249 111.66 52.8014C111.884 52.1283 111.884 52.2031 111.062 52.0535C110.465 51.9787 110.539 51.9039 111.51 51.7543L112.183 51.6048L112.108 51.3056L111.959 50.7821C111.959 50.4829 112.78 49.8846 113.602 49.6602C114.647 49.4359 114.573 49.4359 114.199 48.9123L113.676 48.0896L113.527 47.7905L113.9 47.8653L114.573 48.314C115.095 48.8375 115.394 48.9123 115.992 48.4636C116.29 48.314 116.813 47.7905 117.261 47.3418C117.859 46.5939 118.083 46.4443 118.83 46.1451L119.651 45.7712L119.95 45.0233L120.324 44.2754L121.145 43.9762C121.892 43.6023 121.967 43.6023 122.34 42.9292C122.938 41.9569 123.535 40.7603 123.535 40.4611C123.61 40.162 123.61 40.162 124.133 40.2368L124.656 40.3115L124.805 39.4889C125.029 38.5166 125.029 38.5166 124.805 37.7687C124.656 37.2452 124.581 37.0956 123.909 36.4973L123.237 35.8242L123.087 34.1788L123.012 32.6082L122.415 31.7107C121.743 30.8133 121.519 30.6637 121.295 31.1872L121.22 31.5612L120.772 31.0376L120.324 30.5889L118.681 31.0376ZM132.199 36.1981C131.378 36.4973 129.137 37.5443 128.988 37.6939C128.913 37.6939 129.062 38.1426 129.361 38.5914L129.809 39.4141L129.51 40.3115L130.108 40.6107C130.855 40.8351 130.929 41.0594 130.556 41.583L130.407 41.8821L130.929 42.4804C131.303 42.9292 131.527 43.0788 131.751 43.1535L132.05 43.2283L131.751 43.7519L131.378 44.2754L132.199 45.3972L132.946 46.4443L133.021 45.472C133.179 42.2835 133.254 39.0914 133.245 35.899L132.199 36.1981ZM71.7759 39.8628L74.5394 58.1114C74.6888 58.1862 75.2863 57.6627 75.4357 57.4383C75.4357 57.214 75.5851 57.1392 75.6598 57.1392L76.6307 56.9896L77.527 56.84L81.8589 57.7375L82.0083 56.6904L82.9046 56.4661L83.8008 56.3165L85.8921 54.2224C87.3112 52.7266 88.0581 52.1283 88.4315 51.9039L88.9544 51.6048V51.0812C88.8797 50.6325 88.8797 50.5577 87.834 49.5107C86.8631 48.6132 86.0415 47.9401 85.7427 47.9401L85.8921 48.314L86.0415 48.7628C86.0415 48.8375 84.9212 48.7628 84.8465 48.6132L84.7718 48.314L84.473 47.4913C84.1743 46.9678 84.0996 46.893 83.278 46.4443C82.5311 46.0703 82.2324 45.846 81.3361 44.8737C80.4398 43.9762 80.1411 43.7519 79.6929 43.6023L79.1701 43.3779L78.7967 43.7519L78.3485 44.051L77.751 43.3031C77.2282 42.63 77.1535 42.5552 74.4647 40.9846L71.7012 39.3393L71.7759 39.8628ZM157.668 44.8737L148.78 50.2585L149.004 51.3804C149.378 52.577 149.378 52.6518 149.154 53.2501C149.004 53.6241 149.004 53.6241 149.154 53.9232C149.378 54.2972 150.423 54.5963 151.245 54.5963C152.066 54.5963 152.515 54.372 153.784 53.3249L154.905 52.3526C155.054 52.2031 155.129 52.2031 155.577 52.4274L156.1 52.5022L157.519 50.8569L158.714 50.5577L159.834 50.4081L159.909 49.5854C159.983 48.9123 159.983 48.8375 160.282 48.688C160.581 48.5384 160.581 48.5384 160.432 49.2115C160.207 49.8098 160.207 49.8846 160.432 49.8098C160.581 49.8098 166.705 39.7132 166.631 39.6384L157.668 44.8737Z"
      fill="#CCCC33" />
    <path
      d="M124.805 41.4334L123.909 42.3309L122.49 45.0233C121.444 47.0426 120.996 47.7905 120.697 48.0896C120.249 48.5384 120.249 48.5384 119.726 47.5661L119.502 47.0426L117.261 48.9871L116.963 50.0342L116.589 51.0812L116.29 50.6325L115.618 49.9594L115.319 49.735L114.946 50.0342L114.423 50.4829L114.797 52.0535L115.245 53.6241L116.141 54.4468L118.158 56.6157L119.353 57.9619L121.295 58.5602L121.817 58.4106C122.34 58.261 122.49 58.261 123.087 58.4106L124.207 58.4854C124.656 58.4106 124.656 58.4106 124.88 57.8871L125.328 56.6904L125.701 55.5686C125.851 55.1199 126 54.9703 126.896 53.998C127.793 53.0258 128.017 52.8014 128.017 52.5022C128.166 51.8291 128.166 51.7543 128.838 51.3804L129.51 51.0064L129.958 51.4552C130.407 51.9039 130.407 51.9787 130.183 51.9039L129.585 51.7543C129.212 51.6795 129.212 51.7543 129.062 52.2031C128.913 52.5022 128.763 52.6518 128.614 52.7266H128.39L128.689 53.0258L129.062 53.3249L128.614 53.3997L128.091 53.5493L127.942 54.4468C127.793 55.3442 127.793 55.419 127.344 55.793C126.971 56.0921 126.672 56.4661 126.224 57.2888C125.776 58.0366 125.253 58.8593 124.581 59.5324L123.685 60.6543L123.237 63.4963L123.909 63.8702L124.506 64.1694L125.701 63.8702C126.299 63.7207 127.27 63.4963 127.718 63.2719L128.689 62.9728L131.676 64.8425L134.44 66.7122L135.336 66.787H136.158L136.456 67.7593L136.755 68.6568L137.801 69.5542L138.772 70.3769L139.892 70.7509C140.938 70.9752 141.162 71.05 141.535 70.9752L142.058 70.9004C142.207 70.9004 145.27 67.4601 145.419 67.0862L145.568 66.787L144.373 65.5904L145.27 65.2164L146.091 64.7677L146.689 63.1223L147.361 61.4022L147.062 60.8787L146.838 60.3551L147.286 59.7568C147.958 58.8593 148.033 58.4854 147.66 57.8871C147.286 57.3635 147.286 57.2888 147.51 56.9896L147.66 56.7652L147.212 56.84L146.539 56.9896C146.39 57.0644 146.39 56.9896 146.689 56.7652L146.913 56.4661L146.763 56.1669C146.241 55.5686 145.27 54.5215 145.12 54.5215L144.448 53.8484C144.149 53.4745 143.925 53.2501 143.776 53.2501C141.32 54.5835 138.927 56.0311 136.606 57.5879L135.934 57.2888L135.261 56.9148L134.365 57.3635L133.693 57.7375L133.32 57.4383C133.021 57.214 132.797 57.1392 132.349 57.1392C131.975 57.1392 131.826 57.1392 131.826 56.9896C131.751 56.84 131.9 56.7652 133.095 56.6904L133.618 56.6157L133.32 55.5686C133.021 54.6711 132.946 54.5215 133.021 53.7736V53.0258H132.647C132.274 53.0258 132.274 53.0258 132.423 53.3249C132.498 53.6241 132.498 53.6241 132.124 53.9232L131.452 54.372L132.05 52.1283L131.527 49.5854L131.004 46.893L129.212 45.6964L129.062 44.2006L128.838 42.7048L127.344 41.3586L127.046 41.6577C126.747 41.8821 126.598 41.8821 126.448 41.6577C126.373 41.5082 126.373 41.4334 126.523 41.2838C126.672 41.1342 126.672 41.1342 126.299 40.8351L125.776 40.5359L124.805 41.4334Z"
      fill="#CCCC33" />
    <path
      d="M132.274 50.0342C132.274 50.4081 132.349 50.5577 132.573 50.7821L132.871 51.0812V50.5577C132.871 50.1838 132.871 50.0342 132.573 49.8098L132.274 49.5106V50.0342ZM159.162 51.53C159.012 51.9039 158.938 51.9787 158.415 52.3526L157.743 52.7266L158.042 53.0258L158.415 53.3249L159.759 51.0812L159.535 51.0064C159.311 51.0064 159.237 51.0812 159.162 51.53ZM87.7593 53.2501C85.3693 55.6434 83.3527 58.7098 83.3527 59.9064C83.3527 60.4299 83.4274 60.4299 84.5477 62.0005C85.444 63.1971 85.8174 63.7954 86.1162 64.4685L86.7137 65.8148C86.9378 66.1887 86.9378 66.2635 86.7884 66.3383C86.3403 66.4879 86.2656 66.4131 85.1452 64.8425C84.6224 63.945 83.9502 63.0475 83.7261 62.8232C83.4274 62.3744 83.4274 62.3744 83.5768 62.1501C83.8755 61.8509 83.6515 61.5518 82.3817 60.8787L81.2614 60.2055L80.888 60.5795L80.2905 60.8787L79.8423 60.9534C75.7267 64.997 72.1381 69.5454 69.1618 74.4903C69.1618 74.8643 69.0871 75.0139 68.7884 75.3878C68.3403 75.9113 68.0415 76.5844 67.7427 77.7063L67.5187 78.6038L67.8174 78.9029C68.1162 79.2021 68.1162 79.5012 67.8921 80.3987L67.3693 82.8668L66.9959 84.7365L66.3983 85.3348C66.0249 85.7088 65.7261 85.9331 65.5768 85.9331C65.2033 85.9331 65.278 86.3819 65.7261 86.8306L66.0996 87.2793L66.0249 88.4012C66.0249 89.4482 66.0249 89.523 65.5021 90.4205C65.1286 91.318 65.0539 91.3928 65.2033 91.6171C65.3527 91.8415 65.3527 91.8415 65.2033 92.2154C64.9046 92.6642 64.9046 93.0381 65.2033 94.5339L65.4274 95.7306L64.8299 97.002C63.9336 98.7969 63.9336 98.9465 64.2324 100.966L64.6805 104.556L64.9046 106.874C64.5325 105.941 64.134 105.018 63.7095 104.107L62.1411 99.3952C61.7676 98.2734 61.6183 97.8247 61.1701 97.4507C60.7967 97.002 60.4979 97.002 60.1245 97.4507C59.527 97.9742 59.1535 99.0961 59.1535 100.143C59.1535 100.667 57.7344 104.705 57.0622 105.977C56.1469 109.57 55.05 113.115 53.7759 116.597C53.6266 117.345 53.6266 117.345 52.7303 116.372C50.3865 113.855 48.4238 111.008 46.9046 107.921C46.9046 107.772 47.5021 107.473 48.6224 107.024C50.1162 106.5 50.639 106.126 51.3859 105.304L52.3568 104.182C52.5809 103.808 52.6556 103.808 52.5062 103.359L51.9834 102.088C51.6847 101.415 51.4606 101.115 50.7884 100.442C49.5187 99.2457 48.0996 98.5726 44.5145 97.6003L42.7967 97.1516C42.4232 97.0768 41.9004 97.6003 41.751 98.1986C41.6017 98.7969 41.6017 100.218 41.751 101.415V103.359C41.6017 105.079 41.6764 107.099 41.8257 107.846V108.894C41.527 109.492 41.527 110.838 41.751 112.483L41.9751 114.353C42.0498 114.578 41.9751 114.727 41.8257 114.951C41.4523 115.4 41.3776 115.699 41.3776 116.597L41.2282 117.868C41.1535 118.167 41.2282 118.242 41.4523 118.541L41.9751 119.065C42.3485 119.214 43.3942 119.14 43.917 118.841L44.3651 118.616V114.054C44.2905 110.688 44.3651 109.567 44.4398 109.567C44.888 109.567 45.6349 110.315 46.3071 111.362C47.0805 112.664 47.9026 113.936 48.7718 115.176C49.1452 116.298 49.444 116.896 50.0415 117.494L50.8631 118.541C51.1618 118.841 51.3859 119.065 51.5353 119.065C51.61 119.14 51.9834 119.065 52.3568 118.915C53.029 118.691 53.3278 118.467 53.4772 117.868C53.5519 117.494 53.5519 117.494 53.6266 117.793C53.6266 118.167 53.8506 118.691 54.1494 118.915C54.3734 119.14 54.5228 119.14 54.8216 119.14C55.5685 118.99 55.7178 118.766 56.6141 115.774C58.1079 110.614 58.4813 109.417 58.6307 109.342C58.7054 109.267 59.0042 109.342 59.3776 109.417L61.2448 109.567L62.7386 109.641C64.4824 112.962 66.0287 116.384 67.3693 119.888C69.1101 124.439 71.3125 128.8 73.9419 132.901C74.7635 134.098 75.4357 134.995 77.3029 137.014C78.6592 138.757 80.3968 140.164 82.3817 141.128C82.3817 140.978 80.9627 139.333 79.5436 138.061C77.9004 136.566 74.3154 131.929 72.8963 129.461C72.4481 128.713 72.2241 128.488 71.9253 128.339L71.4772 128.04L71.6266 126.693L70.8797 125.422C70.4315 124.749 69.9834 124.001 69.9087 123.702C69.7593 123.328 69.7593 123.253 69.9087 123.104L70.1328 122.804C69.8485 121.824 69.4206 120.892 68.8631 120.037L69.2365 120.112L69.5353 120.262V119.888C69.4606 119.588 69.4606 119.588 69.0125 119.514L68.3403 119.364L68.1162 119.289L68.3403 119.14C68.4896 118.99 68.7137 118.915 69.2365 118.915H69.9087L69.4606 117.569L69.0125 117.494L68.4896 117.42L68.639 116.971L68.8631 115.774C68.9378 114.802 69.0871 114.652 69.4606 114.652H69.7593L69.9087 113.53C70.0581 112.633 70.0581 111.137 70.1328 106.575L70.2075 100.741L69.9834 100.143C69.7593 99.47 69.7593 99.1709 70.0581 97.6751L70.1328 97.3759L71.0291 97.3011L72.3735 97.4507C72.8216 97.5255 72.8216 97.5255 72.8216 97.8995L72.971 99.47L73.0456 100.592L72.7469 100.891C72.2241 101.489 72.1494 101.863 72.1494 103.135C72.1494 104.032 72.1494 104.406 72.2988 104.556C74.3257 105.197 76.3425 105.871 78.3485 106.575L78.4232 105.678L78.5726 102.985L78.7967 101.115L78.5726 100.741C78.3486 100.367 78.3485 100.218 78.3485 99.0213C78.3485 97.4507 78.4232 97.2263 79.0208 97.002C79.3195 96.8524 79.3942 96.9272 80.3652 97.3759L81.4108 97.8995L81.3361 98.2734L80.8133 104.631C80.5145 108.819 80.6639 113.231 81.112 115.774C81.2614 116.672 81.2614 117.868 81.0373 118.317C80.8133 118.841 80.0664 119.065 78.9461 118.915C78.6473 118.841 78.5726 118.766 78.4979 118.242C78.4232 117.868 78.3486 116.746 78.4232 114.204L78.3485 110.464C78.1245 110.015 73.4191 107.772 72.5975 107.772L72.4481 107.921L72.2988 109.866C72.0747 112.184 72 115.999 72.0747 116.447C73.1598 118.6 74.5427 120.589 76.1826 122.356L78.4232 124.674L79.3942 125.646L79.5436 126.768C79.7676 128.114 79.7676 128.114 80.0664 128.189C80.5892 128.264 81.112 129.012 81.1867 129.61C81.1867 130.059 81.1867 130.134 81.0373 130.358L80.7386 130.657L81.4108 132.078C81.8589 132.751 82.2324 133.499 82.2324 133.649C82.3817 133.948 82.3817 133.948 82.8299 133.948C83.278 134.023 83.278 134.023 83.3527 133.649C83.4274 133.275 83.4274 133.275 83.8755 133.35C84.0249 133.424 84.1743 133.649 84.3983 134.247L84.8465 135.294C84.9959 135.593 84.9959 135.593 85.3693 135.444C85.5187 135.369 85.8174 135.219 85.8921 135.07C86.1162 134.92 86.1162 134.92 88.2075 136.491C89.4772 137.463 90.5228 138.211 90.8963 138.361C91.2697 138.585 91.4938 138.66 91.7178 139.108L92.0913 139.632L92.39 139.258C92.6141 139.034 92.7635 138.735 92.7635 138.585V138.361C92.9129 138.361 93.8091 138.735 94.2573 139.034L95.1535 139.258C95.4523 139.258 95.527 139.183 95.6764 138.809C95.8257 138.361 95.8257 138.286 95.6764 138.061C95.527 137.987 95.3029 137.164 95.1535 136.341L94.7801 134.696C94.7054 134.546 94.7801 134.472 95.0788 134.472C95.4523 134.472 95.6017 134.621 96.4232 135.294L97.3942 136.117V136.715C97.3942 137.239 97.3942 137.388 97.1701 137.687C97.0208 137.912 96.9461 138.061 97.0208 138.435C97.0954 138.884 97.0954 138.959 97.7676 139.258L98.3652 139.632L99.112 139.408L99.7842 139.183L100.681 140.081C101.427 140.829 101.651 141.053 101.95 141.726L102.324 142.549L102.772 142.624L103.593 142.698C103.967 142.698 103.967 142.698 103.967 143.072C103.967 143.297 104.041 143.446 104.116 143.446C104.49 143.446 105.237 143.072 105.759 142.549C106.282 142.025 106.357 142.025 106.954 141.95C107.402 141.876 107.552 141.876 107.925 141.502C108.971 140.529 108.672 140.604 111.884 139.931L114.871 139.333L115.394 138.585C115.842 138.061 115.992 137.912 116.29 137.837H116.664L116.813 138.361C116.888 138.735 116.888 138.809 117.411 139.034L117.934 139.333L118.382 138.809C118.83 138.361 118.83 138.286 118.755 137.912L118.681 137.463L119.876 136.79L121.22 136.192L122.116 137.388L124.133 136.566L126.149 135.818L126.598 136.341C127.046 136.79 127.12 136.79 127.344 136.715C127.568 136.715 127.867 136.491 128.166 136.192C128.539 135.668 128.614 135.593 128.913 135.668C129.212 135.743 129.286 135.818 129.436 136.416L129.734 137.164C129.809 137.239 130.705 136.865 131.602 136.341L133.768 135.145L135.037 134.546L137.801 131.854L140.564 129.087L144.523 122.131C146.034 119.373 147.528 116.606 149.004 113.83L149.154 113.157L155.353 113.306L155.502 114.652C155.577 115.849 155.577 115.849 155.95 116.073L156.249 116.223L156.622 115.4C156.921 114.802 157.071 114.428 157.071 113.979L157.22 113.306C160.058 113.217 162.898 113.242 165.734 113.381L165.959 112.708C166.183 112.109 166.183 112.035 166.78 111.586C167.303 111.212 167.452 111.062 167.452 110.838L167.527 110.24V109.941L167.9 110.464L168.199 110.988V109.193H168.647C168.946 109.193 169.17 109.118 169.469 108.894L169.842 108.594L155.801 100.741L155.502 99.6944L154.979 97.6751L154.606 96.5532L154.83 95.207C155.122 93.9234 155.346 92.6253 155.502 91.318L161.029 88.2516L166.481 85.1852L166.332 83.6147L166.183 82.1189L165.734 81.8945C165.062 81.5953 165.062 81.371 165.734 80.9222C166.033 80.7727 166.257 80.6231 166.183 80.5483L164.763 79.2021L163.27 77.9307L161.178 78.0054L155.651 78.155H152.141L151.544 76.8088L150.573 76.3601C149.975 76.0609 149.228 75.8365 148.929 75.7618C148.257 75.6122 148.257 75.6122 147.66 75.8365C147.212 76.0609 146.988 76.2853 146.091 77.3323C145.046 78.7533 145.046 78.529 145.27 80.1743L145.419 81.2214L144.971 82.6424L144.598 84.0634L145.195 84.8861L145.718 85.7836L145.419 86.0827L145.12 86.4567L145.494 86.8306L145.867 87.2793L145.793 88.2516C145.568 89.5978 145.568 89.5978 146.017 89.897C146.39 90.1213 146.39 90.1213 146.241 90.4205C146.166 90.6449 146.017 90.7197 145.793 90.7197L145.344 90.5701C145.195 90.4205 145.12 90.4205 144.822 91.0188L144.448 91.5423L145.942 91.6919L147.436 91.7667L147.51 92.0659C147.585 92.2902 147.585 92.2902 147.137 92.365C146.315 92.5146 146.091 92.5146 146.017 92.6642C145.942 92.8138 145.942 92.8138 145.718 92.5894L145.494 92.365C145.691 93.5168 145.915 94.6639 146.166 95.8053L145.27 94.6087C145.195 94.5339 144.971 94.8331 144.672 95.207L144.448 95.581L144.598 95.9549L144.822 96.4037L144.373 97.4507L144.598 99.0213C144.822 100.368 144.822 100.667 144.747 101.041V101.714C144.822 102.013 144.822 102.162 144.672 102.462C144.523 102.836 144.523 102.91 144.672 103.135L144.971 103.583C145.12 103.658 145.046 103.658 144.523 103.658L143.925 103.583L144.149 102.611L144.373 101.789L143.925 101.041C143.627 100.592 143.328 99.844 143.104 99.3204C142.73 98.423 142.73 98.423 143.178 98.1238C143.328 98.049 143.328 97.9742 143.253 97.4507C143.178 97.002 142.954 96.628 142.506 95.8053L141.834 94.7583L141.087 94.5339L140.34 94.3843L139.22 93.1129L138.174 91.8415L136.905 91.2432C135.784 90.7197 135.485 90.4953 134.813 89.8222L134.141 89.0743L136.83 90.4205C137.278 90.5701 137.577 90.7944 138.174 91.3928C138.921 92.1407 139.071 92.2154 140.042 92.5894L141.087 93.0381L141.535 92.8885C141.909 92.739 142.058 92.5894 142.581 91.8415L143.104 90.944L142.954 89.9718L142.581 88.7003L142.432 88.3264L142.73 87.8777L143.104 87.4289L142.805 86.3819L142.506 85.1852L142.805 84.5121C143.029 84.213 143.104 83.9138 143.029 83.9138L141.685 83.7642L140.34 83.6894L140.116 83.3903L139.892 83.0163C139.967 82.9416 141.759 83.1659 141.983 83.3155C142.282 83.4651 142.432 83.3903 142.432 83.0163L142.506 82.418L142.581 82.1189L143.104 82.5676L143.701 82.9416V82.4928C143.701 82.1189 143.701 82.0441 143.253 81.8197C142.506 81.5206 142.506 81.4458 142.805 80.9222L143.029 80.4735L142.581 79.7256L143.178 78.6786C143.701 77.7811 143.851 77.4819 143.925 76.8836L144.075 76.1357L143.552 75.3878C143.029 74.6399 143.029 74.5651 142.954 73.7424L142.805 72.7702C142.656 72.471 141.386 71.7231 140.788 71.5735L140.116 71.424L139.668 71.7231L139.22 72.0971L138.1 71.2744C136.905 70.4517 136.905 70.4517 136.681 70.6013C136.382 70.7509 136.382 70.7509 136.158 70.5265C135.934 70.2273 135.784 69.9282 135.784 69.629C135.784 69.4047 135.635 69.3299 134.888 68.9559L134.066 68.5072L133.17 67.2358C132.757 66.462 132.169 65.796 131.452 65.2912L130.631 64.6929L129.212 64.4685C127.942 64.319 127.643 64.319 126 64.3938H123.685C123.162 64.2442 123.237 64.2442 121.743 65.5904C121.071 66.2635 120.996 66.3383 120.996 66.7122C120.996 67.0114 121.145 67.3853 121.593 68.208L122.116 69.2551L121.967 69.5542L121.743 69.9282L122.266 70.8257L122.863 71.6483L122.564 72.1719C122.34 72.6206 122.34 72.6954 122.49 73.2189L122.564 73.8172L121.593 75.4626C120.324 77.5567 119.876 78.6786 119.801 80.3239L119.726 81.4458L120.174 82.0441C120.548 82.4928 120.622 82.6424 120.622 83.0163V83.4651L121.295 83.839C121.817 84.1382 122.041 84.2878 122.266 84.7365L122.714 85.26L122.938 85.0357C123.087 84.8113 123.162 84.8113 123.685 85.1104L124.058 85.4096L125.776 84.5869L127.419 83.6894L129.66 83.9886L130.033 83.6147C130.407 83.2407 130.481 83.1659 130.332 83.0911C130.183 82.9416 130.108 82.9416 129.734 83.0911L129.286 83.2407V82.9416C129.286 82.792 129.436 82.6424 129.809 82.3432C130.183 82.0441 130.332 82.0441 130.407 82.1189L130.481 82.3432L130.556 82.418L130.78 81.2214L130.929 79.95L130.407 79.4264L130.855 79.0525C131.079 78.9029 131.378 78.7533 131.602 78.7533C131.975 78.7533 131.975 78.7533 131.676 79.2021C131.527 79.3517 131.527 79.5012 131.527 79.576L131.975 79.8752L132.349 80.1743L131.9 80.6979C131.452 81.2214 131.378 81.2962 131.228 82.3432L131.004 83.5399L131.303 84.0634L131.676 84.5121L132.573 83.6147L133.17 84.213L133.693 84.8861L133.245 85.634C132.573 86.6062 132.647 86.6062 129.809 86.2323L127.419 85.9331C127.419 85.9331 126.971 86.3071 126.598 86.8306L125.851 87.7281H125.253C124.88 87.8029 124.432 87.7281 124.133 87.6533C123.61 87.5037 123.535 87.5037 123.461 87.7281C122.639 88.8499 122.564 88.9995 121.817 89.3734C121.071 89.7474 121.071 89.7474 120.174 91.0188L119.353 92.365L119.876 92.8885L120.324 93.4121L120.1 93.786L119.801 94.0852L120.174 94.8331C120.398 95.2818 120.697 95.8053 121.145 96.2541C121.593 96.7028 121.743 96.9272 121.743 97.2263C121.743 97.3759 121.743 97.5255 121.892 97.5255C122.415 97.5255 124.133 98.5726 124.73 99.2457C125.701 100.293 126.373 101.714 126.747 103.434C126.896 104.331 127.12 107.547 127.12 109.716C127.195 111.96 125.104 115.55 122.714 117.345C120.1 119.364 117.037 119.439 114.124 117.569C112.799 116.895 111.745 115.786 111.137 114.428C109.718 111.511 109.568 107.473 110.763 103.359C111.361 101.34 111.51 100.966 112.183 100.442C113.602 99.3204 114.124 98.8717 114.349 98.5726C114.498 98.3482 114.722 98.1238 115.394 97.8995C116.963 97.1516 118.755 96.9272 120.473 97.2263L121.22 97.3011L120.996 96.9272C120.249 96.1793 119.801 95.4314 119.203 94.0852L118.531 92.365L118.456 91.8415C118.382 91.5423 118.382 91.5423 117.784 91.5423H117.112L115.992 90.4205L114.946 89.4482L114.274 90.4205L113.602 91.318L113.079 90.7944L112.556 90.1213L112.855 89.5978L113.154 89.2239L112.855 88.7751L112.556 88.1768L113.079 87.6533L112.257 86.9802C111.51 86.4567 111.51 86.4567 110.614 86.3819C109.793 86.3071 109.643 86.3071 108.896 86.5314L108.149 86.7558L107.328 87.8029C106.656 88.7003 106.506 88.8499 106.282 88.8499C106.058 88.8499 105.983 88.7751 105.983 88.6255C105.983 88.3264 106.282 87.7281 106.656 87.2793L109.12 83.1659C109.344 82.792 109.718 82.1189 110.091 81.7449C110.988 80.6979 111.137 80.4735 111.062 80.0995L110.838 79.576C110.614 79.2021 110.614 78.9029 110.913 78.7533C111.212 78.6786 111.66 78.8281 111.809 79.0525C111.959 79.2769 111.959 79.2769 112.183 79.1273C112.332 79.0525 112.556 78.6038 112.78 78.0802C113.303 77.0332 113.975 76.1357 114.797 75.6122C115.469 75.0887 117.112 74.266 117.187 74.3408C117.336 74.4903 117.187 74.8643 117.037 75.1634L116.066 76.0609L114.722 77.4071L114.05 78.155L114.274 78.3794C114.498 78.7533 114.498 78.9777 114.199 79.1273C113.676 79.3517 113.303 80.0995 113.602 80.4735L114.349 80.9222L115.245 81.2962C115.394 81.4458 115.469 81.4458 115.693 81.2962C115.842 81.2214 115.917 81.0718 115.917 80.9222C115.917 80.6979 116.216 80.6979 116.515 80.9222L117.411 81.6701L118.307 82.3432C118.606 82.5676 118.606 82.5676 118.606 82.3432L118.083 81.5206C117.411 80.6979 117.336 80.4735 118.008 80.3239C118.755 80.1743 119.427 79.1273 119.278 78.3046C119.203 78.0054 119.129 77.9307 118.83 77.7811C118.531 77.7063 118.531 77.7063 118.681 77.5567C118.905 77.4071 118.905 77.3323 118.456 77.108L118.008 76.8088L118.382 76.5097L119.054 75.6122L119.427 75.0139L119.203 74.7147C118.979 74.266 118.979 73.5929 119.278 73.0693C119.427 72.7702 119.427 72.7702 119.278 72.5458L118.83 72.0971L118.531 71.8727L119.054 71.1996C119.427 70.7509 119.577 70.3769 119.726 69.9282C120.025 68.8811 120.025 68.8063 119.502 68.7315L119.129 68.582L118.905 67.0114C118.83 65.8895 118.755 65.2164 118.83 64.6181C118.83 63.7954 118.905 63.7207 119.129 63.6459C119.278 63.6459 119.353 63.6459 119.427 64.0198C119.502 64.6181 119.801 65.2912 119.95 65.366C120.324 65.4408 120.473 65.366 120.996 64.6181C121.519 63.8702 121.519 63.8702 121.519 63.1223C121.519 62.524 121.593 62.3744 121.892 61.8509L122.191 61.103C122.191 60.9534 120.398 59.4576 118.606 58.1114L116.739 56.84V56.2417L116.515 55.3442C116.29 55.1199 114.722 53.9232 114.498 53.9232L114.274 53.998C114.199 54.1476 113.9 54.1476 113.751 53.998C113.602 53.7736 112.631 53.7736 112.183 53.998L111.286 55.0451C110.763 55.793 110.614 56.0921 110.39 56.9896L110.091 58.1862L110.465 58.7845L110.838 59.2333L112.332 59.3081C113.452 59.4577 113.826 59.4576 114.05 59.6072C114.124 59.7568 114.274 59.8316 114.199 59.9064L112.705 60.056C110.614 60.2803 109.643 60.6543 108.598 61.5518L107.851 62.2249V62.9728C107.851 64.2442 108.224 64.9921 109.419 66.5627C110.043 67.3791 110.691 68.1772 111.361 68.9559C111.286 68.9559 110.539 68.582 109.643 67.9837L107.925 67.0114L107.701 65.5904C107.328 63.6459 106.954 62.8232 105.759 61.7761C104.788 60.9534 104.639 60.8786 104.041 61.4022C103.743 61.7013 103.668 61.7013 103.444 61.6265L103.22 61.4022C103.22 61.0282 103.071 60.9534 102.025 61.103C101.278 61.1778 100.531 61.4022 99.4108 61.7013L97.7676 62.2249L97.3942 63.0475C96.9461 63.7954 96.9461 63.8702 96.9461 64.6181C96.9461 65.2912 96.9461 65.366 97.1701 65.5904L97.4689 65.8895L97.6183 65.5156L97.693 64.8425C97.693 64.3938 97.8423 64.2442 98.1411 64.3938L98.4398 64.5433L98.2905 67.2358L97.8423 67.6845C97.3942 68.208 97.3942 68.3576 97.7676 68.6568C97.917 68.8063 97.917 68.8063 97.693 69.0307C97.5436 69.2551 97.3942 69.2551 96.9461 69.2551H96.4232L96.6473 69.5542L96.8714 69.7786L95.8257 71.1248C95.1894 71.8584 94.7295 72.7283 94.4813 73.6677L93.8091 76.1357L93.5851 77.4071L92.9876 77.5567C92.0913 77.7063 91.7178 77.8559 91.195 78.3794C90.8963 78.6038 90.7469 78.9029 90.6722 79.2021C90.5228 79.6508 90.5228 79.6508 90.8963 79.95L91.2697 80.2491L91.3444 80.4735V80.7727H89.1037L88.5062 80.1743C87.9834 79.7256 87.9087 79.576 87.834 79.2021C87.7593 78.8281 87.834 78.7533 88.1328 78.4542L88.4315 77.8559C88.3569 77.7811 88.4315 77.4071 88.5062 77.108L88.6556 76.5844L89.2531 76.5097C89.9253 76.4349 90.1494 76.2853 90.1494 76.0609C90.1494 75.4626 90.2241 75.3878 90.971 75.313L91.7178 75.0887L91.8672 73.8172V72.5458L92.39 72.471C92.8382 72.3214 92.8382 72.3214 94.1079 70.6013L95.4523 68.7315C95.527 68.582 95.4523 68.5072 95.3029 68.3576L95.0042 68.1332L95.6764 67.9837L96.4232 67.7593V67.3105C96.4979 66.9366 96.4232 66.6374 96.1992 65.9643C95.8257 65.0669 95.751 64.4685 95.9751 64.0198C96.0498 63.7954 96.0498 63.7954 95.8257 63.5711C95.527 63.1971 95.6017 62.9728 96.1992 62.4492C96.6473 62.1501 96.8714 61.8509 97.0954 61.3274C97.4689 60.6543 97.4689 60.5795 97.9917 60.4299L98.4398 60.2055L98.5892 59.6072C98.7386 59.0837 98.6639 58.9341 98.5145 58.3358C98.3651 57.7375 98.3652 57.6627 98.0664 57.5879C97.7676 57.5131 97.6183 57.3635 97.5436 57.1392C97.3942 56.84 97.3942 56.7652 96.8714 56.84C96.3486 56.9148 96.1992 56.84 96.1992 56.3165C96.1992 56.0173 96.1992 56.0173 95.3029 55.5686C94.6307 55.2694 94.332 55.0451 94.1826 54.8207C94.0332 54.5215 94.0332 54.5215 94.1826 54.2972C94.332 54.0728 94.332 53.998 94.1826 53.8484C94.0332 53.6241 91.5685 52.8014 90.7469 52.7266L90.3735 52.6518L90.2988 53.0258C90.2241 53.3249 90.2241 53.3997 90 53.3249C89.7013 53.2501 89.5519 53.0258 89.5519 52.7266L89.4025 52.1283L89.1784 51.8291L87.7593 53.2501ZM93.361 97.3759C93.9585 98.049 93.9585 98.2734 93.5104 99.0213C93.0622 99.844 92.5394 100.368 91.0456 102.013C89.6607 103.513 88.3875 105.113 87.2365 106.799L86.7137 107.248H87.0125C88.6604 106.708 90.3643 106.357 92.0913 106.201C92.8382 106.126 92.8382 106.126 93.0622 106.5C93.2863 106.799 93.361 106.874 93.361 107.697V108.52L92.7635 108.819C92.0166 109.118 90.5975 109.492 88.5062 109.791L86.7137 110.165L87.4606 110.913L89.8506 113.231L92.7635 115.849L93.9585 116.821L93.8838 117.195C93.8838 117.42 93.7344 117.719 93.5851 117.943C93.2863 118.317 92.6141 118.841 92.3154 118.841C92.0166 118.841 91.2697 118.392 91.0456 118.093L89.9253 117.12C87.4606 115.101 84.9212 112.633 83.0539 110.315C81.7095 108.669 81.7095 108.968 82.8299 107.622C83.4274 106.874 83.8755 106.126 84.0996 105.678C84.473 104.93 84.6224 104.78 85.3693 104.182L90.4481 98.4978C91.3444 97.6751 92.39 96.9272 92.6888 96.9272C92.8382 96.9272 93.0622 97.0768 93.361 97.3759ZM97.8423 97.0768C98.0664 97.1516 98.0664 97.2263 97.9917 97.5255L97.917 99.0213C97.917 99.9936 97.917 100.218 97.693 100.517C97.5436 100.891 97.5436 101.115 97.5436 102.013L98.1411 115.924L99.1867 116.073C99.7096 116.073 100.382 116.223 100.606 116.298C100.979 116.447 101.129 116.447 102.1 116.372C103.519 116.148 103.743 116.148 104.34 116.447C105.162 116.896 105.237 116.971 105.087 117.195L104.863 117.793C104.788 118.167 104.639 118.317 104.34 118.541L103.967 118.841L99.6349 118.915H95.3776L95.4523 118.467C95.6017 117.719 95.527 116.597 95.3029 113.83C95.0788 110.838 95.0788 109.866 95.2282 108.37C95.3029 107.473 95.3029 106.65 95.0788 103.135C94.8548 98.3482 94.8548 98.3482 95.527 97.7499C96.5726 97.002 97.0954 96.7776 97.8423 97.0768ZM108.448 97.0768C108.672 97.1516 108.822 97.3011 108.822 97.4507C108.196 101.884 107.996 106.367 108.224 110.838C108.299 117.644 108.299 118.093 108.075 118.467C107.776 119.14 106.954 119.065 106.506 118.242L106.207 117.793L106.133 114.353C106.023 109.592 106.023 104.829 106.133 100.068C105.983 99.6944 105.983 99.3204 105.983 98.4978C105.909 97.6003 105.983 97.5255 106.207 97.3011C106.357 97.0768 106.506 97.002 107.178 97.002L108.075 96.9272L108.448 97.0768ZM136.307 97.3011C137.054 97.5255 137.129 97.6003 137.129 97.8247C137.129 98.1986 136.755 99.47 136.531 99.9188C136.307 100.367 135.859 100.816 135.56 100.816C135.411 100.816 134.963 101.34 134.066 102.686L132.423 105.079L132.124 105.453L133.021 106.425C134.664 108.146 136.456 110.763 136.456 111.436C136.456 111.96 136.083 112.558 135.112 113.53C133.618 115.026 133.469 115.176 133.32 115.625L132.871 116.148L131.452 117.42C129.959 118.915 129.361 119.14 128.39 118.766L128.091 118.616L128.166 118.018C128.241 116.672 129.137 115.55 130.631 114.652C131.9 113.83 132.871 113.007 133.394 112.259C133.768 111.661 133.768 111.586 133.768 111.062L133.693 110.464L132.722 109.567C131.228 108.146 129.884 106.799 129.51 106.276C128.913 105.304 128.988 104.705 129.884 103.583L131.303 101.714C132.124 100.442 135.261 96.8524 135.411 96.9272L136.307 97.3011ZM45.9336 101.115C46.7552 101.19 47.4274 101.489 48.1743 102.013C48.6224 102.312 49.8921 103.509 49.8921 103.658C48.115 104.774 46.2401 105.725 44.2905 106.5V104.032C44.2905 101.19 44.3651 100.891 44.888 100.966L45.9336 101.115ZM61.2448 104.705C61.3641 105.36 61.5137 106.009 61.693 106.65C60.9421 106.717 60.1944 106.816 59.4523 106.949C59.3776 106.874 60.1245 104.631 60.4979 103.883C60.722 103.434 60.7967 103.284 60.8714 103.434L61.2448 104.705ZM144.299 115.4L143.925 115.625C143.776 115.625 144 115.251 144.299 115.026C144.598 114.802 144.598 115.026 144.299 115.4ZM141.685 118.99L140.788 120.486C140.191 121.533 139.967 121.907 139.519 122.206C139.145 122.43 139.071 122.655 138.921 123.029C138.772 123.477 138.622 123.627 137.95 124.151L136.008 125.871C135.411 126.469 134.589 127.067 134.141 127.367C132.946 128.114 133.021 128.04 133.17 127.89C133.394 127.516 133.618 127.217 134.589 126.469C137.369 124.272 139.811 121.676 141.834 118.766L141.685 118.99ZM94.9295 127.441L94.6307 127.666C94.4066 127.666 94.4066 127.74 94.332 128.114C94.332 128.638 94.332 128.638 94.6307 128.638C94.8548 128.638 94.9295 128.638 94.9295 128.788C94.9295 128.862 94.8548 128.937 94.6307 128.937H94.332V130.508C94.2573 131.854 94.2573 132.078 94.1079 132.078C93.9585 132.153 93.9585 132.003 93.8838 130.508V128.937H93.5851C93.4357 128.937 93.361 128.862 93.361 128.788L93.5851 128.563C93.8838 128.563 93.8838 128.563 93.8838 128.04C93.9585 127.441 94.1826 127.217 94.6307 127.217C94.8548 127.217 94.9295 127.292 94.9295 127.441ZM97.693 127.666C97.693 127.89 97.6929 127.965 97.5436 127.89L97.3195 127.591C97.3195 127.367 97.3195 127.292 97.5436 127.292C97.6929 127.292 97.693 127.367 97.693 127.666ZM115.245 128.189V129.012L115.618 128.788C116.066 128.488 116.589 128.414 117.037 128.713L117.485 129.161V130.732C117.485 131.854 117.485 132.078 117.336 132.078C117.187 132.153 117.187 131.929 117.112 130.732C117.112 129.535 117.037 129.311 116.888 129.161C116.589 128.862 115.917 128.862 115.544 129.161C115.32 129.386 115.32 129.461 115.245 130.732C115.245 131.854 115.17 132.078 115.021 132.078C114.871 132.153 114.871 131.929 114.871 129.76C114.871 127.367 114.871 127.292 115.021 127.292C115.245 127.292 115.245 127.367 115.245 128.189ZM102.025 128.713C102.025 128.862 101.876 128.937 101.726 129.012C101.129 129.161 100.979 129.461 100.905 130.882C100.905 131.929 100.83 132.153 100.755 132.078C100.606 132.078 100.531 131.854 100.531 130.358C100.531 128.638 100.531 128.638 100.681 128.638C100.83 128.638 100.905 128.713 100.905 128.862V129.161L101.054 128.937C101.427 128.563 102.025 128.339 102.025 128.713ZM106.357 128.713C106.805 129.012 107.104 129.461 107.104 129.984V130.433H104.564L104.639 130.807C104.714 131.405 105.162 131.779 105.685 131.779C106.133 131.779 106.506 131.555 106.656 131.181L106.88 131.031C107.178 131.031 107.029 131.33 106.656 131.779C106.432 132.003 106.282 132.078 105.834 132.078C105.087 132.153 104.639 131.929 104.415 131.405C104.116 130.807 104.116 129.61 104.49 129.161C104.863 128.563 105.759 128.339 106.357 128.713ZM111.436 128.638C111.959 128.862 112.332 129.61 111.884 129.61C111.734 129.61 111.66 129.535 111.66 129.461C111.66 129.161 111.286 128.937 110.838 128.937C110.315 128.937 110.091 129.087 110.091 129.386C110.091 129.76 110.315 129.909 111.137 130.209C111.959 130.433 112.183 130.657 112.183 131.181C112.183 131.779 111.809 132.003 110.988 132.078C110.315 132.153 110.241 132.153 109.942 131.779C109.568 131.405 109.419 131.031 109.793 131.031L110.017 131.256C110.166 132.003 111.734 131.929 111.734 131.181C111.734 130.882 111.51 130.657 110.689 130.433C109.942 130.283 109.643 130.059 109.643 129.535C109.643 129.087 109.793 128.862 110.166 128.638C110.614 128.488 110.988 128.488 111.436 128.638ZM122.714 128.788C123.61 129.461 123.535 131.405 122.564 131.929C122.116 132.228 121.145 132.153 120.772 131.779C120.398 131.48 120.249 131.031 120.249 130.358C120.249 129.461 120.622 128.788 121.295 128.563C121.668 128.488 122.415 128.563 122.714 128.788ZM97.693 130.358C97.693 132.003 97.6929 132.153 97.5436 132.078C97.3942 132.078 97.3942 131.854 97.3195 130.358C97.3195 128.638 97.3195 128.638 97.5436 128.638C97.6929 128.638 97.693 128.713 97.693 130.358ZM126.299 129.909L126.672 131.33C126.672 131.63 126.822 131.256 127.195 129.984C127.568 128.788 127.568 128.638 127.793 128.638C128.017 128.638 128.091 128.788 128.39 129.984L128.838 131.33L129.286 129.984C129.585 128.862 129.734 128.638 129.884 128.638L130.033 128.713L129.51 130.508C129.062 131.854 128.988 132.078 128.763 132.078C128.614 132.078 128.539 132.078 128.166 130.433L127.793 129.386L127.344 130.732C127.046 132.003 126.971 132.153 126.747 132.078C126.296 130.942 125.873 129.795 125.477 128.638H125.701C125.851 128.638 126 128.862 126.299 129.909ZM82.7552 131.031C82.7552 131.256 82.6805 131.48 82.4564 131.704L82.083 132.003L81.4855 131.256L81.7842 131.031C81.9336 130.807 82.083 130.732 82.3817 130.732C82.7552 130.732 82.7552 130.732 82.7552 131.031ZM111.809 138.136L111.51 138.435L111.436 138.136C111.286 137.687 111.361 137.613 111.734 137.687L112.033 137.837L111.809 138.136ZM109.494 138.061L109.793 138.435L109.494 138.66L109.046 138.959L108.896 138.66C108.822 138.361 108.896 137.687 109.046 137.687L109.494 138.061Z"
      fill="#CCCC33" />
    <path
      d="M105.087 129.012C104.863 129.161 104.564 129.61 104.564 129.909C104.564 130.134 104.639 130.134 105.61 130.134C106.656 130.134 106.656 130.134 106.656 129.909C106.656 129.61 106.432 129.161 106.207 129.012C105.983 128.862 105.311 128.862 105.087 129.012ZM121.145 129.087C120.622 129.461 120.473 130.508 120.772 131.181C121.145 132.003 122.266 132.003 122.714 131.256C122.863 131.031 122.938 130.807 122.863 130.209C122.863 129.535 122.863 129.461 122.564 129.236C122.191 128.862 121.519 128.788 121.145 129.087ZM156.174 53.8484C155.577 54.2972 155.054 54.5963 154.68 54.6711L153.485 55.0451L152.813 55.2694L153.336 55.8678C153.784 56.3913 153.784 56.3913 154.083 56.2417C154.456 56.0921 154.456 56.0921 154.456 56.3913C154.456 56.5409 154.382 56.6156 154.232 56.6904C153.934 56.7652 153.934 56.7652 154.755 57.5131L155.502 58.1862L156.772 56.0921C158.116 53.8484 158.191 53.6989 157.743 53.3997C157.295 53.1005 157.145 53.1005 156.174 53.8484ZM149.527 55.5686C149.378 55.5686 149.303 55.7182 149.303 55.7182L149.676 56.9896C149.975 58.1114 150.05 58.1862 150.423 58.5602L150.946 59.0089L150.274 59.6072L149.676 60.2055L149.452 61.477L149.228 62.8232L149.602 63.0475L149.9 63.2719L149.527 65.2912C149.154 67.3853 149.154 67.5349 149.303 67.9837L149.452 68.2828L152.29 63.5711C154.606 59.682 155.054 58.8593 154.979 58.7845C153.784 57.6627 153.784 57.6627 152.963 57.5879L152.216 57.5131L152.141 57.1392C152.066 56.7652 151.992 56.6156 151.394 56.1669C150.573 55.4938 150.05 55.2694 149.527 55.5686ZM75.6597 58.1114L74.9875 58.4854C74.6141 58.7845 74.6888 59.8316 74.9875 59.9812H75.6597L76.0332 59.8316L74.9875 60.8787L75.0622 61.6265L75.2116 62.4492C75.361 62.5988 76.7801 62.0753 78.1245 61.477L79.4689 60.8039L79.8423 60.1308C80.3651 59.3081 80.3651 59.3829 79.5436 58.9341C78.4979 58.4106 77.3029 57.9619 76.7054 57.8871C76.2573 57.8123 76.1079 57.8871 75.6597 58.1114ZM108.896 58.261C108.672 58.4854 108.598 58.635 108.598 58.9341C108.598 59.6072 108.672 59.682 109.046 59.2333C109.344 58.8593 109.419 58.5602 109.27 58.1114C109.195 57.8871 109.195 57.8871 108.896 58.261ZM64.5311 59.1585C62.7386 59.8316 61.917 62.3744 62.9627 64.3938C63.4108 65.4408 64.0083 65.8148 65.2033 66.0391L65.5768 66.1139L65.5021 65.74L65.278 65.2912C65.0539 65.0669 64.9792 64.8425 65.1286 64.7677C65.2033 64.6929 65.5021 64.8425 65.8008 64.9173L66.3983 65.2164L66.1743 65.4408C65.8755 65.5904 65.8755 65.5904 66.3236 65.8148C66.6224 65.9643 66.6971 65.9643 66.8465 65.8895C67.2946 65.6652 67.444 65.4408 67.444 65.2164C67.444 64.9921 67.8174 64.6181 68.0415 64.6181C68.1909 64.6181 69.0871 63.6459 69.3112 63.1223C69.5353 62.7484 69.61 62.524 69.61 61.9257C69.61 60.7291 69.0124 59.8316 67.7427 59.3081C67.1452 59.0089 66.9958 58.9341 66.0996 58.9341C65.278 58.9341 65.0539 58.9341 64.5311 59.1585ZM144.299 69.4794C143.925 69.7038 143.776 69.8534 143.253 70.6761L142.656 71.5735L143.477 72.6954L144.299 73.7424C144.373 73.7424 144.597 73.2937 144.747 72.6954C144.942 72.1109 145.166 71.5368 145.419 70.9752L144.822 71.05L144.373 71.1248L144.747 70.4517C145.195 69.8534 145.195 69.7786 145.046 69.5542C144.822 69.2551 144.896 69.2551 144.299 69.4794ZM148.033 70.7509L148.108 71.4988L148.332 71.9475L148.631 72.2467L148.332 72.471L147.958 72.6954L148.332 73.0693C148.631 73.2937 148.855 73.3685 149.079 73.3685C149.676 73.3685 149.751 73.2937 149.452 72.6206C149.303 72.0971 148.108 70.1525 147.958 70.1525L148.033 70.7509ZM89.4025 77.2576C89.1037 77.2576 88.9543 77.6315 89.029 77.9307C89.1037 78.3046 89.2531 78.3046 89.5519 78.0054C89.8506 77.8559 89.8506 77.7811 89.7759 77.4819L89.7012 77.1828L89.4025 77.2576ZM172.158 77.7811L166.705 77.9307L167.079 78.3046C167.452 78.7533 167.527 78.7533 168.946 79.1273L170.365 79.5012L171.112 79.2769L171.784 79.1273L172.158 79.4264L172.456 79.8004L171.635 80.0995C170.963 80.2491 170.813 80.3239 170.216 80.8475C169.618 81.4458 169.544 81.5206 169.319 82.1937L169.095 83.0163L169.394 83.2407L169.693 83.3903L179.925 77.7063C180 77.6315 179.851 77.6315 172.158 77.7811ZM111.66 81.2214C111.361 81.5953 111.286 81.7449 111.286 82.0441L111.212 82.792C111.137 83.0911 111.062 83.1659 110.763 83.2407L110.39 83.3903C110.39 83.6147 111.66 85.1104 112.033 85.4096C112.407 85.7088 112.481 85.7088 113.079 85.7088H113.676L113.527 84.9609L114.05 84.8861C114.498 84.8861 114.647 84.8113 114.797 84.6617L114.946 84.3626L114.647 83.839C114.349 83.3903 114.274 83.3155 113.826 83.2407L113.378 83.0911L113.228 82.418C113.079 81.7449 112.929 81.6701 112.183 80.997C111.958 80.8474 111.958 80.8474 111.66 81.2214ZM59.0041 82.9416C58.4813 83.1659 58.556 83.6895 59.1535 83.9886C59.751 84.2878 60.4979 84.0634 60.4979 83.6147C60.4979 83.4651 59.9751 82.9416 59.751 82.9416L59.4523 82.8668L59.0041 82.9416ZM119.876 84.0634C119.278 84.2878 119.278 84.4373 119.726 84.6617C119.95 84.7365 120.921 84.5869 120.921 84.4373L120.622 84.1382L120.398 83.839L119.876 84.0634ZM0.896266 97.3011C0.522822 97.5255 0.373444 97.6003 0.298755 97.8247C0.224066 98.2734 0.224066 100.517 0.373444 101.863C0.59751 103.733 0.59751 105.603 0.373444 109.641C0.224066 111.511 0.0746888 114.353 0.0746888 116.073L0 119.14H0.896266C1.64315 119.14 1.79253 119.14 1.86722 118.99C2.09129 118.616 2.83817 118.242 3.88382 118.018L4.92946 117.719L6.12448 116.597L8.88797 114.278C13.668 110.539 14.5643 109.791 14.7884 109.193V108.52C14.7137 107.921 11.8008 104.705 10.083 103.284L9.18672 102.387C8.6639 101.34 7.61826 100.592 5.07884 99.2457C3.28631 98.3482 2.6888 97.9742 2.16598 97.4507C1.86722 97.0768 1.64315 97.002 0.896266 97.3011ZM4.10788 102.162L5.75104 103.135L6.79668 103.658C7.24481 104.032 11.278 108.819 11.278 108.968C11.278 109.118 11.0539 109.267 7.17012 112.483C4.55602 114.652 3.95851 115.101 3.51037 115.251L2.91286 115.325L2.83817 113.755C2.83817 112.558 2.91286 112.184 3.06224 111.586C3.28631 111.062 3.28631 110.838 3.21162 110.539C3.13693 110.24 3.13693 109.941 3.28631 109.492C3.58506 108.22 3.58506 107.996 3.361 107.024C3.21162 106.276 3.21162 105.453 3.13693 103.808V101.564L4.10788 102.162ZM16.7303 97.1516C16.0581 97.2263 15.9834 97.2263 15.7593 97.4507C15.5353 97.6751 15.5353 97.8247 15.5353 98.7221C15.5353 99.47 15.61 99.9188 15.7593 100.293C15.6496 105.054 15.6496 109.817 15.7593 114.578V118.018L16.0581 118.467C16.5809 119.289 17.3278 119.364 17.7012 118.616C17.8506 118.317 17.8506 117.793 17.8506 111.062C17.6223 106.591 17.8223 102.108 18.4481 97.6751C18.3734 97.3759 17.8506 97.0768 17.6266 97.1516H16.7303ZM24.7967 98.9465C23.4233 100.464 22.1745 102.089 21.0622 103.808C20.166 104.93 20.0166 105.528 20.6888 106.425C20.9876 106.949 22.3319 108.295 23.8257 109.716C24.7967 110.614 24.8714 110.614 24.9461 111.137C25.0207 111.586 24.9461 111.736 24.722 112.184C24.2739 112.932 23.3029 113.83 22.1079 114.578C20.3154 115.699 19.4191 116.821 19.2697 118.242L19.195 118.841L19.5685 118.99C20.4647 119.364 21.1369 119.065 22.6307 117.644C23.2282 116.971 23.9004 116.447 23.9751 116.372C24.1245 116.298 24.3485 116.073 24.4232 115.849C24.6473 115.4 24.7967 115.251 26.2905 113.755C27.2614 112.783 27.6349 112.184 27.6349 111.586C27.6349 110.913 25.8423 108.295 24.1992 106.65L23.3029 105.678L23.6017 105.229L25.2448 102.91C26.1411 101.564 26.5892 100.966 26.7386 100.966C26.9627 100.966 27.4855 100.517 27.7095 100.068C27.9336 99.6196 28.3071 98.3482 28.3071 97.9742C28.3071 97.7499 28.2324 97.7499 27.4855 97.4507L26.5892 97.1516C26.5145 97.1516 25.6929 97.8994 24.7967 98.9465ZM38.7635 97.3759C37.6432 98.049 36.6722 99.0213 33.9834 102.237C33.2985 103.068 32.5493 103.843 31.7427 104.556C31.2199 105.079 30.9958 105.378 30.8465 105.752C30.6224 106.425 30.3983 106.725 29.4274 107.921L28.6058 109.043C30.7413 112.071 33.3371 114.746 36.2988 116.971L37.7178 118.317C38.3153 118.99 38.8382 119.14 39.361 118.915C39.8091 118.691 40.2573 118.242 40.4813 117.868C40.7801 117.195 40.7054 117.046 39.8838 116.372C39.0622 115.699 35.029 112.035 33.834 110.838C33.2365 110.24 32.9378 109.866 32.7137 109.342L32.3402 108.669L32.639 108.295L33.61 107.248L34.5062 106.276L35.4025 105.079L36.0747 104.032L37.4938 102.387C39.5851 100.218 40.556 98.9465 40.556 98.3482C40.556 98.1238 39.6598 97.0768 39.4357 97.0768L38.7635 97.3759ZM118.979 100.592L118.456 100.741C118.382 100.816 118.083 100.891 117.934 100.816L116.141 101.115L114.797 101.489L114.274 102.387C113.602 103.434 113.303 104.107 112.929 105.079L112.631 105.827L112.705 107.398C112.78 108.52 112.705 109.043 112.631 109.417C112.556 109.866 112.556 109.941 112.78 110.464L113.527 112.409C113.751 113.231 114.05 113.979 114.199 114.129C114.647 114.951 115.842 115.4 117.485 115.55C119.129 115.625 120.548 115.251 120.846 114.652C120.996 114.353 120.996 114.278 121.519 114.278L122.266 114.054C124.133 111.736 124.656 110.015 124.058 108.146C123.834 107.622 123.834 107.622 124.058 107.024C124.357 105.902 124.581 104.705 124.506 104.406C124.133 103.135 122.49 101.19 121.369 100.816C120.772 100.592 119.502 100.442 118.979 100.592ZM175.967 112.334C175.967 112.633 175.967 112.633 175.817 112.633L174.473 112.409L174.772 112.708C174.996 112.932 175.071 113.082 175.071 113.306V113.68H175.668C176.116 113.68 176.191 113.605 176.34 113.456L176.415 113.231L176.564 113.456C176.714 113.605 176.863 113.68 177.909 113.68L179.029 113.605L176.041 111.96L175.967 112.334ZM152.739 119.588L152.141 120.187L152.664 120.262C153.187 120.336 153.187 120.336 153.635 119.962L154.382 119.289L154.606 119.065H154.008C153.411 119.065 153.411 119.065 152.739 119.588ZM129.66 138.361C129.66 138.585 129.734 138.585 130.108 138.585C130.407 138.585 130.481 138.585 130.481 138.361C130.481 138.211 130.407 138.211 130.108 138.211C129.734 138.211 129.66 138.211 129.66 138.361ZM118.232 141.053C118.083 141.128 118.008 141.277 118.008 141.726L118.083 142.25L118.531 142.025C118.905 141.876 118.979 141.801 118.905 141.502C118.755 140.978 118.755 140.903 118.232 141.053ZM84.5477 143.371C85.8174 144.643 86.7137 145.241 87.6846 145.54C88.2821 145.69 88.805 145.989 89.7012 146.513C91.195 147.485 91.0456 147.41 94.9295 148.756C96.9144 149.616 99.042 150.098 101.203 150.177C101.203 149.953 100.307 149.429 99.7842 149.355C95.2709 147.906 90.9165 146.002 86.7884 143.671L84.9958 142.399H84.249L83.5021 142.324L84.5477 143.371ZM102.473 150.177C102.1 150.252 101.801 150.402 101.95 150.476C102.1 150.701 104.266 150.925 105.237 150.925H106.282L106.058 150.551C105.834 150.252 105.759 150.252 104.788 150.252L103.369 150.103L102.473 150.177Z"
      fill="#CCCC33" />
  </g>
  <defs>
    <filter id="filter0_i_8_119" x="0" y="0" width="179.935" height="154.925" filterUnits="userSpaceOnUse"
      color-interpolation-filters="sRGB">
      <feFlood flood-opacity="0" result="BackgroundImageFix" />
      <feBlend mode="normal" in="SourceGraphic" in2="BackgroundImageFix" result="shape" />
      <feColorMatrix in="SourceAlpha" type="matrix" values="0 0 0 0 0 0 0 0 0 0 0 0 0 0 0 0 0 0 127 0"
        result="hardAlpha" />
      <feOffset dy="4" />
      <feGaussianBlur stdDeviation="2" />
      <feComposite in2="hardAlpha" operator="arithmetic" k2="-1" k3="1" />
      <feColorMatrix type="matrix" values="0 0 0 0 0 0 0 0 0 0 0 0 0 0 0 0 0 0 0.25 0" />
      <feBlend mode="normal" in2="shape" result="effect1_innerShadow_8_119" />
    </filter>
  </defs>
</svg>