<svg version="1.0" xmlns="http://www.w3.org/2000/svg" width="800" height="661.33" viewBox="0 0 600 496">
  <path
    d="M522.5 1.5c-2.7.8-5.4 1.4-5.9 1.5-1.8 0 .8 1.7 4.4 2.9 9.2 2.9 16 12.9 16 23.4 0 6.8-1.6 11-6 16.1-4.6 5.2-10.3 7.9-18.1 8.5l-6.6.6 2.8 6.9c3.1 7.6 5.1 10.1 12.4 15.6 5.4 4 23 15.2 26.7 17 2.1 1 2.1 1-.2-1-16.3-14-21-19.7-21-25.3 0-11.2 27.8-5.2 48.5 10.4 3.9 2.9 10.6 8.9 15 13.3 12.8 13 .9-4.4-13.9-20.2C563.3 56.9 555 42.1 555 32.6c0-3.6 2.1-6.6 4.6-6.6 4.7 0 11.7 5.7 19.1 15.5l2.3 3-1.1-3c-3.7-10.6-15.8-25.8-27-34.1-9.1-6.6-20-8.8-30.4-5.9z" />
  <path
    d="M505.5 14.4c-7.6 3.4-12 14.1-8.4 20.8 1 1.9-4.3 7.5-60.2 63.4L375.5 160h10.9l58.1-57.9 58.2-58 7.4.6c6.6.4 7.8.3 10.8-1.9 13.5-9.1 7.5-29.9-8.6-29.8-2.1.1-5.1.7-6.8 1.4zm-275 52.9c-10.6 3.6-17.4 9.3-22.1 18.7-2.4 4.7-2.8 6.7-2.9 14 0 7.6.3 9.2 3.3 15.2 3.8 7.7 9.2 13 17.1 16.6 8 3.7 19.2 3.7 27.2 0 7.9-3.6 13.3-8.9 17.1-16.6 2.9-5.8 3.3-7.6 3.3-14.7 0-6.6-.5-9-2.6-13.6-5.7-12.2-16.8-19.8-29.6-20.5-4-.2-8.5.2-10.8.9z" />
  <path
    d="M94.5 99.5c3.6 4.6 16.8 16.4 29 26 20 15.6 45.9 31.7 67.3 41.7 9 4.2 10.6 5.3 13.1 9.3 10 15.8 6.1 41.9-8.6 58.5-15.9 17.9-33.2 46-36.8 59.5-2.5 9.7-3.8 40.1-2.6 61.2 1 15.7 4.5 46 5.5 47 .2.2.8-4.3 1.5-9.9 4.4-37.4 13.7-73.1 24.8-95.1 18-35.9 40.7-47.4 70.2-35.6 43.4 17.3 84.4 58.1 112.8 112.4 3.4 6.6 6.3 11.6 6.3 11.2 0-.4-1.8-8.1-4.1-17-7.8-31.1-15.6-56.1-20.4-65.7-2.8-5.5-15.9-20.1-41.3-46.1-20.9-21.4-27.5-30.3-33.3-45.2-2.7-6.9-3.3-9.6-3.3-16.7-.1-6.6.3-9.2 1.7-11.3l1.7-2.7h19.3c22.6 0 41.3-1.3 58.7-4.1 11.1-1.7 31.8-6.4 32.8-7.3.2-.2-4.3-.7-10-1-63.1-4.1-114-11.4-164.8-23.7-38.9-9.3-72.3-22.3-107.9-41.8C99 99.2 92.9 96 92.6 96c-.4 0 .5 1.6 1.9 3.5z" />
  <path
    d="M58.5 183.5 20.8 252h-4.5c-5.4 0-9.4 2-12.7 6.3-7.6 9.9-1.2 24.3 11.3 25.5 6.1.6 11.1-1.6 14.7-6.4 3.8-5 4.1-13.6.6-18.3-2.2-3-2.2-3.2-.6-6.3.9-1.8 17.4-31.8 36.6-66.6 19.2-34.8 35.2-64 35.5-64.8.5-1.4-3.2-6.4-4.8-6.4-.3 0-17.6 30.8-38.4 68.5z" />
  <path
    d="M64.8 240.1c-14.6 1.5-19.9 3.9-24.4 11-2.2 3.6-2.3 4.2-1 6.7 5.6 11 .1 26.3-11.7 32.3-5.1 2.6-12.5 3.5-17.1 1.9-2.1-.6-4-1-4.2-.7-1.2 1.2 6 7.6 10.8 9.8 4.5 2 6.9 2.4 15.8 2.3 18-.1 31.9-5.2 40.9-15 2.8-3.1 5.1-5.9 5.1-6.4s-2.4.7-5.2 2.6c-9.6 6.3-18.3 7.8-22.2 3.9-2.5-2.5-.9-4.2 7.2-7.5 17.2-6.9 22.3-10.1 32.6-20 13.2-12.8 16.1-16.8 7.2-10.2-8.3 6.3-20.8 12.8-27 14.2-5.7 1.2-10.2.2-15.4-3.7-2.5-1.9-3.2-3.1-3-5.1.2-2.2 1.7-3.4 7.8-6.6 4.1-2.2 10.9-5.5 15-7.3l7.5-3.3-5.5.1c-3 .1-9 .5-13.2 1zm424.8 12.7c-1.7 13-8.2 25.4-20.2 38.4-4.8 5.1-10.3 11.7-12.2 14.7-6.7 10.5-9.3 22.3-7.2 32.6 3.6 17.2 12.5 26.7 29.8 31.9l5.4 1.5-3.5-3.8c-4.5-5-6.2-10-6.1-18.6.1-8.4 3.9-18.8 8.9-24.1 4-4.2 5.3-3.8 9.9 2.5 3.1 4.2 9 10 17.5 17.2 2.8 2.4 3.1 3.2 3.1 8.7 0 6.4-2 13.5-4.7 16.5-1.7 1.8-1.6 1.8 1.2 1.2 11.5-2.6 24.4-12.5 29.2-22.4 2.6-5.2 2.8-6.5 2.8-17.6 0-13.1-1.8-21.3-7.6-34.8-4.8-11.3-13.1-23.7-15.9-23.7-.5 0-.6 3.9-.3 8.7.6 10.2-.6 15.8-4.3 20.3-3 3.5-5.4 3.8-8 .9-1.5-1.7-2-4.4-2.5-14.7-.5-8.8-1.3-14.5-2.8-18.5-2.2-6.2-7.1-15.8-10-19.6l-1.8-2.4-.7 5.1zM431 382c4 3.2 16.2 8.8 24.2 11 11.6 3.3 25.2 5 39.5 5 22.3 0 38.1-3.1 53.8-10.5 17-8 21.4-7.4-53.5-7.4l-66.5-.1 2.5 2zM26 427v20h209v-40H26v20zm218 18.5V484h112v-77H244v38.5zM365 427v20h209v-40H365v20zM.7 455.7c-.4.3-.7 9.3-.7 20V495h235l-.2-19.8-.3-19.7-116.6-.3c-64.1-.1-116.9.1-117.2.5zM365 475v20h235l-.2-19.7-.3-19.8-117.2-.3L365 455v20z" />
</svg>