<svg version="1.0" xmlns="http://www.w3.org/2000/svg" width="800" height="661.333" viewBox="0 0 600 496">
  <path
    d="M213 1.1c-13.6.8-28.4 3.6-61.5 11.4-45.4 10.7-67.1 14.8-94 18C44.9 31.9 14.3 34 4.8 34H0V495.3l19.8-.6c39.5-1.3 69.9-6.1 131.7-20.7 42.1-9.9 50.5-11.3 70-11.4 14.8-.1 18.1.2 25.5 2.2 15.3 4.2 28.4 11.8 41.3 24.1l6.7 6.4V33.2l-6.7-6.2C265.6 6.4 244.7-.8 213 1.1zm1.5 121.4c6.4 1.8 20.5 8 20.5 9 0 .8-5 23.7-5.6 25.3-.3 1-1.3.6-3.6-1.1-10.1-7.6-23.2-11.7-37.5-11.7-12.3 0-22.1 2.2-32.2 7.1-14.4 7.1-26.7 21.6-32.7 38.6-4 11.5-9.4 10.3 46.6 10.3 46 0 49 .1 49 1.7 0 1-.7 5.5-1.6 10l-1.7 8.3H118v19h94l-.5 2.2c-.8 3.5-3.5 16.9-3.5 17.4 0 .2-19.4.4-43.1.4h-43.1l.7 3.7c3.6 19.8 16.1 37.1 32.6 45.2 12.1 5.9 19.2 7.5 32.9 7.5 16-.1 27.8-3.6 37.8-11.1l3.2-2.4v29.9l-5.7 2.1c-29.1 10.7-68.1 6.6-92-9.7-8.2-5.6-20-18.4-25.1-27.4-4.6-8.1-10.2-22.6-12.2-32.1l-1.3-5.7H81.8c-12.5 0-11.7 1-9.2-11.8l1.7-8.2h15.2l-.3-9.5-.3-9.5h-9c-10.4 0-10 .6-7.1-12l1.8-7.5 8.3-.5 8.3-.5 1.8-7.2c9.6-37.7 37.3-63.5 76.3-70.9 9.8-1.8 37-1.2 45.2 1.1zM368 1.1c-20.6 1.5-38.4 9.7-56.2 25.9l-6.8 6.2v462.1l6.8-6.4c12.8-12.3 25.9-19.9 41.2-24.1 7.4-2 10.7-2.3 25.5-2.2 19.5.1 27.9 1.5 70 11.4 61.8 14.6 92.2 19.4 131.8 20.7l19.7.6V34h-4.7c-9.6 0-40.2-2.1-52.8-3.5-26.9-3.2-48.6-7.3-94-18C404.7 2.1 387.6-.3 368 1.1zm82 139c10 19.1 13.2 32.5 13.4 54.9.2 14.9.4 16.9 2.4 20.7 3.4 6.6 9.3 7.4 14.9 2.1 8.2-7.9 10.7-23.4 7.7-47.6-.6-4.6-.5-5.2 1.1-5.2 6.6 0 25.6 31.9 33.9 57 12.8 38.7 10.8 71.3-5.5 90.7-9 10.7-24.6 20.7-39.3 25.2-10 3.1-11.5 2.8-7.1-1.1 6.3-5.4 10.5-17 10.5-28.7 0-9.1-2.2-13.4-8.9-17.9-8-5.3-21.8-18.9-28.6-28.2-8.5-11.5-12.4-12.2-18.9-3.3-3.9 5.4-11.1 21-13.3 28.7-4.3 16 .7 36.8 11.4 47.2 2.4 2.4 3.9 4.4 3.1 4.4-3.8 0-17.4-4.6-25.7-8.7-16.3-8-25.4-19.1-32.1-39-7.9-23.7-3.8-48 12.1-71.4 2.2-3.3 9.7-11.9 16.6-19.2 22.8-24.1 34-44.7 38.1-70.3l1.6-10.2 4.3 6c2.3 3.4 6.1 9.6 8.3 13.9z" />
</svg>