<svg version="1.0" xmlns="http://www.w3.org/2000/svg" width="800" height="661.333" viewBox="0 0 600 496">
  <path
    d="M170.4 1.1c-6.6 1.9-8.9 9.2-5.1 16.6 6 11.5 7.7 72.9 2.3 85.7-1.2 2.9-2.3 3.5-13.9 7.4-61.4 20.6-101.1 56.5-111.3 100.7-2.7 11.4-2.5 31 .4 42.6 7.4 30 23 54.5 67.9 106.1 22.8 26.3 33 39.2 37 47.1 6.1 12.2 13.1 19.2 20.3 20.3l3.8.6 9.2 20.5c5.1 11.2 9 20.5 8.9 20.6-.2.1-2.2 1.1-4.3 2.2-4.2 2.1-13.3 12.5-14.3 16.3-.4 1.7.1 3 1.6 4.5l2.2 2.2h249.8l2.2-2.2c1.5-1.5 2-2.8 1.6-4.5-1-3.8-10.1-14.2-14.3-16.3-2.1-1.1-4.1-2.1-4.3-2.2-.1-.1 3.8-9.4 8.9-20.6l9.2-20.5 3.8-.6c7.2-1.1 14.2-8.1 20.4-20.3 3.9-7.8 15.3-22.4 37.1-47.3 43.8-50.1 60.4-76.1 67.7-105.8 2.9-11.7 3.1-31.2.4-42.7-10.2-44.2-49.9-80.1-111.3-100.7-11.6-3.9-12.7-4.5-13.9-7.4-5.4-12.8-3.7-74.2 2.3-85.7.9-1.8 1.7-5.1 1.7-7.3.1-5-2.2-8-7.3-9.4-4.6-1.3-254.3-1.2-258.7.1zm256.3 9.5c.3.9-.1 3.7-1 6.3-4.2 12-6.5 44.9-4.9 69.7.6 8.8 1.2 16.6 1.4 17.4.3 1.3-14.8 1.5-122.2 1.5s-122.5-.2-122.2-1.5c.2-.8.8-8.6 1.4-17.4 1.6-24.8-.7-57.7-4.9-69.7C171.3 8.2 158.2 9 300 9c115.3 0 126.1.1 126.7 1.6zM187 126.4c0 .2-4.7 3-10.5 6.1-13 7.1-18.5 12.6-18.5 18.4 0 4.2 2 7.1 4.9 7.1 1 0 3.7-1.3 6.2-2.9 4.2-2.8 17.6-7.8 18.5-6.9.2.3-1.3 1.6-3.3 2.9-4.7 3.1-6.1 7.2-6.2 17.9l-.1 8.4-4.2-4.1c-4.8-4.7-7.1-5.7-14.4-6.8-8.8-1.2-15.4 4.3-15.4 12.8s7.5 15.1 17.4 15.4c7.3.2 8.2 2.1 2.1 4.1-6.2 2.1-16.3 1.1-21.9-2.2-8.5-5-12.6-16.5-10.5-29.5 2.2-13.7 11.2-24.7 26.5-32.2 10.2-5.1 29.4-10.6 29.4-8.5zm-21.7 48.7c1.2.7 3.3 2.4 4.7 4 1.7 1.9 17.4 9.8 48.5 24.5 25.3 11.9 48.9 23.1 52.5 24.8l6.5 3.1-7.7.7-7.7.7-46.3-22.1c-41.5-19.8-46.8-22-51.1-21.9-9.8.2-16.2-6.5-11.6-12.2 1.6-2.1 2.9-2.7 6-2.7 2.2 0 5 .5 6.2 1.1zm148.9 9.2c20.5 12 11.6 43.7-12.4 43.7-13.8 0-23.7-9.7-23.8-23.3 0-6.9 1.9-12 6.3-16.5 7.9-8.3 19.8-9.8 29.9-3.9zM418 217c0 2.4-9.2 9.1-19.7 14.4-15.4 7.7-43.1 17.2-59.8 20.5-9.2 1.9-9.3 1.9-12 6.6-4.7 7.9-4.9 19.7-.6 29.7 1 2.4 4.9 8.1 8.7 12.8 9.1 11.3 15.7 21.4 20.8 31.9l4.1 8.6V368c0 16.7-.5 30.3-1.4 36.8-.7 5.7-1.5 10.1-1.7 10-.1-.2-1.2-6.8-2.4-14.7-7.3-50.4-23.5-80.9-45.3-85.2-7.5-1.5-14.1-.2-25.4 5.1-28.5 13.4-54 39.7-73 75.5-6 11.3-6 11.4 1.4-16 9.5-34.9 8.5-33.3 37.8-63.5 14.2-14.6 17.6-18.7 20.8-25 6.3-12.6 7.3-24.4 2.6-30.4-1.9-2.5-2.5-2.6-11.7-2.6-11.5 0-26-2.1-35.7-5.1-7.1-2.2-19.9-8.1-20.9-9.7-.3-.5 11.5-1.2 26.2-1.5 69.9-1.8 109.5-6.7 165.7-20.6 22.7-5.6 21.5-5.4 21.5-4.1zm48.6 40.4c-1.9 3.7-3.9 9.6-4.6 13.2-1.2 6.3-1 15.8.4 17.1 1.7 1.7 4.4-2.2 8.1-11.7l4-10.3.6 11.9c.6 9.9 1.2 13.3 3.8 20.2 2.4 6.5 3.1 9.8 3.1 15.5-.1 20.4-7.9 30.3-24 30.1-8.9-.2-15.6-3.4-19.3-9.4-1.5-2.6-3.2-10-2.2-10 .3 0 2.1 1.8 4.1 4 6 6.6 17.3 8.9 23.4 4.7 4.9-3.3 7.2-8.2 6.7-14.3-.7-9.5-5.9-14-18-15.5-9.7-1.2-11.1-2.6-10.4-10.7.6-7.6 3.6-13.9 11.4-24.4 6.9-9.1 15.1-18.3 15.8-17.6.3.2-1 3.5-2.9 7.2zM392.8 286c30.7 14.6 56.1 26 57.4 25.9 6.9-.6 12.8 3.1 12.8 8.1 0 8.1-10.9 9.4-17.2 2.1-2.8-3.3-9.9-7-50.3-26.1-25.8-12.3-50.7-24-55.3-26.2L332 266l1.5-3c.9-1.7 2.2-3 2.9-3 .8 0 26.2 11.7 56.4 26zm21 153.2c-2.7 6.2-6.8 15.5-9.1 20.5l-4 9.3H199.3l-4-9.3c-2.3-5-6.4-14.3-9.1-20.5l-5.1-11.2h237.8l-5.1 11.2z" />
  <path
    d="M297.6 24.2c-2.3 8.2-5.3 13.3-13.2 22-7.7 8.7-10.7 14.4-11.2 22.1-.9 11.4 3.8 20.6 12.9 25.1 2.9 1.4 6.2 2.6 7.3 2.6 1.9 0 1.9-.1-.2-2.3-3.2-3.4-4.7-10.9-3.3-16 1.5-5 5.8-12.7 7.1-12.7.5 0 4.8 3.8 9.5 8.5 8 8 8.5 8.8 8.5 12.8 0 2.3-.8 5.6-1.9 7.3l-1.9 3.1 2.4-.5c4.4-.8 12.8-6.7 15.9-11 2.6-3.8 3-5.4 3.3-12.1.5-9.9-1-16.9-5.4-26.2-3.8-7.9-8.2-14.4-9.2-13.5-.3.4-.4 3.1-.3 6.1.3 6.7-1.3 12.1-4.1 13.6-3.4 1.8-4.9-.8-5.3-9.7-.2-4.3-1.1-9.9-2-12.4-1.4-4-6.2-13-6.9-13-.1 0-1 2.8-2 6.2zM93 17.6c-12.9 3.5-22.1 10.8-25.8 20.5-7 18.8-4.6 38.1 6.8 55.2 5.2 7.8 16.3 19.4 24.7 25.9l5.4 4.1 13.2-6.3c7.2-3.4 13.5-6.5 14-6.9.4-.4-3.2-3.4-8-6.7-25.4-17.1-37.6-39.2-29.1-52.2 1.5-2.2 4.9-5.4 7.5-6.9 4.5-2.6 5.5-2.8 15.8-2.7 9 0 13.2.6 23.3 3.2 12.6 3.3 18 4.1 20 2.8 2.3-1.4.4-19.7-2.4-22.7-1.8-2-12.9-5.1-25.8-7.4-11.3-1.9-32.2-1.9-39.6.1zM466.5 17.6c-12.3 2.2-23.2 5.4-24.9 7.3-2.8 3-4.7 21.3-2.4 22.7 2 1.3 7.4.5 20-2.8 10.1-2.6 14.3-3.2 23.3-3.2 10.3-.1 11.3.1 15.8 2.7 2.6 1.5 6 4.7 7.5 6.9 8.5 13-3.7 35.1-29.1 52.2-4.8 3.3-8.4 6.3-8 6.7.5.4 6.8 3.5 14 6.9l13.2 6.3 5.4-4.1c8.4-6.5 19.5-18.1 24.7-25.9 9-13.4 12.3-27.1 10.1-41.4-3.1-20.2-11.1-29.6-29.6-34.4-7.5-1.9-28.9-1.9-40 .1z" />
</svg>