<svg version="1.0" xmlns="http://www.w3.org/2000/svg" width="800" height="661.333" viewBox="0 0 600 496">
  <path
    d="M311.6 11.7c-.9 13.5-3 25.8-5.6 32.5-2.3 6-6.5 10.8-9.5 10.8-4.4 0-9-7.9-12.4-21-1-3.9-2.2-7.1-2.7-7.2-1.7-.2-9.3 15.6-10.9 22.4-.8 3.7-1.5 10.1-1.5 14.3 0 8.7-1.1 11.5-4.4 11.5-5.1 0-8.8-8.1-8.9-19.4 0-7.9 0-7.9-1.8-5.5-4 5.1-10 16.1-13 23.5-7.2 18.1-7.3 37.6-.1 45.8.9 1 4.7 3.9 8.4 6.3s7 4.8 7.3 5.3c1.2 2 2.5.9 2.5-1.9 0-1.6-.5-5.2-1.2-8-1-4.5-.9-5.3.7-7.1 1-1.1 2.8-2 3.9-2 1.2 0 4.5-1.8 7.5-4 2.9-2.2 6.1-4 7.1-4 3.3 0 8.2 5.3 11.6 12.4 4.2 8.8 4.4 14.2.9 21.2-1.4 2.7-2.5 5-2.5 5.1 0 .2 5.6.3 12.5.3s12.5-.1 12.5-.3c0-.1-.9-2.1-2-4.2-1.8-3.6-2-5.2-1.4-17.5.4-7.4 1-13.9 1.5-14.4.5-.6 1.9-.4 3.6.3 2.7 1.2 3 1.1 6.8-3.3 2.2-2.5 4.7-4.6 5.6-4.6 1.7 0 4.5 2.8 7.2 7.1.9 1.5 3.2 3.6 5.1 4.8 4.3 2.7 5 4.8 3.6 10.2-.7 2.4-.9 6.2-.5 8.8l.7 4.6 2-4c1.2-2.2 4.1-6.5 6.5-9.6 5.6-7.2 7.3-12.8 7.3-24.7 0-11.1-2.6-25-7.7-40.6-3.8-12-9.7-25.6-11-25.6-.4 0-.6 4.4-.4 9.7.5 14.8-2.7 25.3-7.9 25.3-3.6 0-4.4-2.8-5.1-16.9-.7-15-2.6-23.8-7.4-35.2-5.7-13.6-6.1-13.6-6.9-1.2z" />
  <path
    d="M267.6 123.1c-.9 2.4-16.6 88.8-16.6 90.9 0 1.7.7 2 4.5 2 2.5 0 4.5-.3 4.5-.6 0-.7 21.7-85.7 22.6-88.6.4-1.3-.4-1.9-3.3-2.7-8.2-2.1-11.3-2.4-11.7-1zM323.2 123.4c-2.9.7-5.4 1.5-5.6 1.7-.3.2 4.7 20.4 11 44.9 6.2 24.5 11.4 44.8 11.4 45.2 0 .5 2 .8 4.5.8 4.3 0 4.5-.1 4.4-2.8 0-1.5-3.7-22.5-8.2-46.7-9.3-49.5-7.6-45.5-17.5-43.1zM125.3 130.9c-9.4 3.5-16.7 10.3-21.2 20-2.2 4.8-2.6 6.9-2.6 15.1 0 8.3.4 10.3 2.9 15.7 3.3 7.3 11.2 15.3 18.3 18.6 3.8 1.7 6.7 2.2 13.8 2.2 7.8 0 9.7-.4 14.7-2.8 7.3-3.6 14.9-11.9 17.9-19.5 3.2-8.1 3.1-20.4-.1-28.7-2.8-7.3-11.1-16-18.5-19.4-7-3.3-18.2-3.8-25.2-1.2zM455.5 129.9c-10.2 2.6-20.7 11.9-24.5 21.6-3.2 8.3-3.3 20.6-.1 28.7 3 7.6 10.6 15.9 17.9 19.5 5 2.4 6.9 2.8 14.7 2.8 7.1 0 10-.5 13.8-2.2 7.1-3.3 15-11.3 18.3-18.6 2.5-5.4 2.9-7.4 2.9-15.7 0-8.2-.4-10.3-2.7-15.2-3.6-7.7-10.7-15.2-17.7-18.4-6-2.9-16.7-4.1-22.6-2.5z" />
  <path
    d="M0 161.7c0 .3 2.1 4 4.7 8.2 12.8 20.7 28.6 38.6 43.3 49 9.3 6.6 23.7 13.9 35.5 18 9.9 3.6 11.8 4.9 14.6 10.3 3.7 7.3 5.1 16.4 4.7 30.3-.6 16-2.5 21.7-10.8 32.6-9.5 12.4-15.8 22.6-22.5 36.4-12.1 25.1-13.9 34.6-13.8 76.5 0 25.6 1.1 41 4.5 62.5l1.2 8 1.7-17.5c6.4-63.9 21-107.8 42.3-127.8 14.7-13.7 30.2-15.8 51-6.9 22.9 9.7 47.1 28.3 65.6 50.5 18.4 21.9 35.8 51.6 45.5 77.5 1 2.6 1.9 4.6 2.1 4.4.5-.5-9.2-39.4-14.2-57.2-5.6-19.5-9.8-30.6-13.6-36.3-4.1-6-22.5-27.7-40.4-47.8-16.9-18.9-22.6-28-28.5-45.4-4.2-12.6-4.7-25-1.1-32.2 2.9-5.9 3.8-6.2 27.2-8.3 33.5-3.1 55.2-9 70.3-19.3 4.1-2.8 2.1-3.2-16.6-3.2-39 0-125.9-6.1-150.2-10.5-31.1-5.7-61.1-20.8-94.4-47.4-6-4.8-8.1-6-8.1-4.4zM591.9 166.1c-33.3 26.6-63.3 41.7-94.4 47.4-24.3 4.4-111.2 10.5-150.2 10.5-18.7 0-20.7.4-16.6 3.2 15.3 10.4 36.5 16.1 73.2 19.7 19.5 1.8 19.5 1.8 22.2 4.9 3.5 3.9 5.3 12.3 4.4 20.5-1.8 16.1-12.2 38.2-24.4 51.6-18.7 20.6-41.6 47.5-47.3 55.6-4.4 6.3-8.5 16.9-14.3 37.3-5.1 18.2-14.6 56.4-14.1 56.9.2.2 1.1-1.8 2.1-4.4 9.7-25.9 27.1-55.6 45.5-77.5 18.5-22.2 42.7-40.8 65.6-50.5 10-4.3 16.5-5.6 25.2-5.1 34.9 2.1 59.3 52.1 68.1 139.8l1.7 17.5 1.2-8c3.4-21.5 4.5-36.9 4.5-62.5.1-41.9-1.7-51.4-13.8-76.5-6.7-13.8-13-24-22.5-36.4-8.3-10.9-10.2-16.6-10.8-32.6-.4-13.9 1-23 4.7-30.3 2.8-5.4 4.7-6.7 14.6-10.3 33.4-11.7 57.2-32 78.8-67 6.8-11 6.3-11.5-3.4-3.8z" />
  <path
    d="M247 246.9c-2 .6-2.7 1.6-3.4 5.5-.7 3.7-.5 5 .5 5.7 3.1 2 4.7.9 5.8-3.9.7-2.6 1.4-5.5 1.7-6.5.6-1.8-.4-2-4.6-.8zM348.4 247.6c.3 1.1 1 4 1.7 6.6 1.1 4.8 2.7 5.9 5.7 3.9 1-.6 1.2-2.1.7-5.5-.8-5.2-.7-5.1-5.3-6.1-3-.6-3.3-.5-2.8 1.1z" />
</svg>