<svg version="1.0" xmlns="http://www.w3.org/2000/svg" width="800" height="661.333" viewBox="0 0 600 496">
  <path
    d="M4.4 2.3c22.9 17 34.6 37.1 37.6 65 2.8 24.9-1.4 47.9-23.5 129.2C11.4 222.6 6 247.4 3.3 267c-2.1 14.9-2.3 60.9-.4 86 4.7 62.4 16.5 110.1 33.7 136.2l3.8 5.8H383l-3.5-4.9c-4.5-6.2-12.5-23.1-16.4-34.7-10.9-32-17-72.9-19.2-127.6-2-47.9.4-66.8 18.5-144.8 14.6-63.2 16.1-73.2 16-104 0-21-.2-24.3-2.2-31.5-4.7-17-14.1-32.2-25.8-41.9L343.6 0h-171L1.5.1l2.9 2.2zm310.8 34.2c1.5 3.8 2.7 7.6 2.8 8.2 0 1-25.2 1.3-122.9 1.3H72.2l-3.6-7.6c-2-4.2-3.6-8-3.6-8.5s50.9-.8 123.7-.7l123.7.3 2.8 7zM322 76v8H77v-4.9c0-2.7-.3-6.3-.6-8l-.6-3.1H322v8zm-9.9 76.7l-1.7 7.8-124.1.3-124.1.2 2-8 2-8h247.6l-1.7 7.7zm-7.1 31c0 .5-.4 2.4-.9 4.3-.6 1.9-1.5 5.4-2.1 7.7l-1.1 4.3H51.8l.6-3c.3-1.7 1.3-5.5 2.2-8.5l1.5-5.5h124.5c68.4 0 124.4.3 124.4.7zm-16.5 82c-.3 3.2-.8 6.8-1.1 8l-.4 2.3H36.4l.7-5.8c.4-3.1.8-6.7.8-8l.1-2.2h251.1l-.6 5.7zm-2.5 40.8v8.5H35v-17h251v8.5zm-128 35.4c0 2.7.3 6.3.6 8l.7 3.1h-122l-.7-4.6c-.3-2.6-.6-6.2-.6-8V337h122v4.9zM532.7 290.1c-10.4 2.4-22 12.4-25.1 21.5-3.9 11.4-1.1 23.5 7.5 32.9 2.3 2.5 4 4.7 3.8 4.8-.2.2-2.8 1.4-5.7 2.7-6.2 2.8-12.5 9.2-15.5 15.8-3 6.6-2.9 17.9.1 24.6 5.3 11.7 12.1 17.7 38 34 18.1 11.3 30.1 20.3 33.4 24.8 3.5 5 3.3 14.2-.5 19.1-4.7 6.2-9.7 8.2-20.2 8.2-9.7 0-14.6-1.7-19.2-6.7-2.5-2.7-7.3-12.5-7.3-15 0-2.7-1.4-2.9-10.9-1.6-10.5 1.3-10.3 1.2-7.1 10.9 6.4 19 21.5 28.9 44 28.9 18.8 0 33.7-7.6 39.8-20.1 6.7-13.8 4-27.9-7.5-39.8-2.9-3-5.2-5.5-5-5.6.1-.1 2.5-1.2 5.2-2.5 11.9-5.7 17.9-15.1 18-28 0-6.1-.5-8.6-2.7-13.2-5-10.7-8.5-13.5-46.4-37.8-20.1-12.9-26.7-20.8-24.3-29.5 2.4-8.4 10.2-13.4 21.2-13.5 11.7 0 17.4 4.2 21.3 15.7 2.6 7.7 1.5 7.2 15.5 5.8l6.7-.6-1.4-6c-3.7-15.8-14.5-26.5-30.2-29.8-6.2-1.3-20-1.3-25.5 0zm5 72.8c4.9 3.3 13.3 8.8 18.8 12.4 12.7 8.3 17.8 12.7 21.1 18.3 3.5 6 3.5 11.8 0 17.8-2.7 4.6-9.6 10.6-12.2 10.6-.7 0-6.1-3.1-12.1-6.9-5.9-3.8-14.3-9-18.6-11.6-19.3-11.8-25.4-22.3-19.6-34.2 1.8-3.8 10.9-12.2 13.1-12.3.4 0 4.7 2.7 9.5 5.9z" />
</svg>