<svg version="1.0" xmlns="http://www.w3.org/2000/svg" width="800" height="661.333" viewBox="0 0 600 496">
  <path
    d="M28 3.2c0 6.3-6.9 213.3-7.6 225.5l-.6 12.2-3.6 1.2c-2 .6-5.7 3.3-8.3 5.9-12.6 12.6-9.2 32.1 7.1 40.6 4.8 2.5 16.2 2.5 21 0 16.4-8.6 19.7-28.4 6.9-40.8-2.6-2.6-6-5-7.4-5.4-2.4-.6-2.5-.9-2.5-8.8 0-4.4 1.6-54.5 3.5-111.1C38.3 65.8 40 15.2 40.2 10l.2-9.5-6.2-.3L28-.1v3.3zM251.4 11.4c-.2 18.9-5.5 33.5-19.8 54.4-22.6 33.1-23.4 51.2-3.4 76 8.6 10.7 9.8 13 10.5 20l.6 5.5 2-2.4c1-1.3 3.1-4.6 4.6-7.4 2.4-4.7 2.6-5.9 2.8-20.5.2-16.4 1-20.4 5.8-28.6 4.7-8 13.8-13.6 19.8-12 1.3.3 6.4 4.9 11.2 10.2 4.9 5.3 11.3 11.2 14.4 13.2 6.7 4.5 9.9 10.3 10.8 19.6.5 5.7.3 7.1-2.4 12.8-1.7 3.4-5.5 9.4-8.4 13.3-7.7 9.9-7.7 9.8-1.9 7.5 21.2-8.3 38.6-31.3 42-55.2 3-20.7-6.4-48-25-72.7-6.5-8.5-16.3-18.1-18.6-18.1-1.9 0-1.8 1.1.7 10.9 1.5 6 2 10.5 1.7 16-.4 8.4-2 12.4-5.9 15.3-5.7 4.2-10.9-2.5-12.8-16.5-2.3-16.6-8.9-30.2-22-45.2-6.6-7.5-6.6-7.5-6.7 3.9zM547.9 5.1c-15.6 16.8-34.8 51.3-40.1 72-3.7 14.9-.3 34.4 8.7 49.4 2 3.3 4.1 7.8 4.8 10.1l1.1 4.2 3.5-7c4-8.1 11.3-16.2 16.8-18.5 9-3.8 26.4-.3 32.6 6.6 5.7 6.3 7.7 17.3 4.4 23.7-2.7 5.2-10.7 12.3-18 15.9-6.1 3-7.9 3.5-14.3 3.5-4.1 0-7.4.4-7.4.9s2.6 2.2 5.8 3.8c4.8 2.4 6.9 2.8 13.7 2.8 7.2 0 8.6-.4 14.3-3.4 7.2-3.9 16.4-13.2 20.4-20.7 4-7.4 6.2-16.7 5.4-23.2-.3-2.9-3.3-12.6-6.5-21.5S586.7 85 586 82c-2.9-11.8-.9-22.4 5.9-32.3 1.8-2.6 2.7-4.7 2.1-4.7-.6 0-3.4 1.2-6.3 2.6-13.8 7-26.4 18.3-33.1 29.8-2.1 3.6-4.5 7.1-5.2 7.7-4.8 4-6.9-5.7-6.1-28.6.6-19.2 3.2-36.3 7.2-47.4 1.5-4 2.4-7.5 2.1-7.9-.3-.3-2.4 1.5-4.7 3.9z" />
  <path
    d="M545.5 128.9c-6.2 2.8-10.4 6.9-13.4 12.9l-2.6 5.5-199.6 143.2-199.6 143.2-5.6.5c-7.3.6-14.1 4.8-18.4 11.2-11.3 16.7 9.1 25.6 24.8 10.9 3-2.8 5.3-6 6.1-8.4 1-3.7 11.5-11.3 200.7-147.1 189.3-135.8 199.8-143.2 204.9-144 7.3-1.2 11.2-2.9 16-7.2 7.6-6.9 9.3-14.6 4.3-19.7-2.5-2.5-3.7-2.9-8.3-2.9-3 0-7.1.8-9.3 1.9zM202.2 249.5c-38 62.3-69.4 113.9-69.7 114.7-.4 1 .9 2.4 3.5 4.2 2.3 1.5 4.3 2.6 4.4 2.4.2-.2 34.8-49.5 77-109.7 62.6-89.2 76.5-109.6 75.4-110.6-.7-.7-5.8-4.2-11.4-7.7l-10-6.5-69.2 113.2zM127.5 183.2c-10.4 21.1-24.1 39-33.5 43.8-2.2 1.1-6.6 2.3-9.7 2.6-10.3 1.1-17.3-2.3-17.3-8.4 0-3.7 15.8-25.6 27.4-38.1l4.1-4.4-8 4.3c-11.7 6.3-24.2 14.2-31 19.7-7.2 5.7-12.1 14.6-13.1 23.5l-.7 5.7 5.6 5.1c3.8 3.4 6.8 7.4 8.9 11.8 3.1 6.2 3.3 7.4 3.3 16.7 0 8.9-.3 10.7-2.8 16.1-5.3 11.5-17.4 20.6-29.4 22.2l-5.8.8 5 2.6c6.5 3.3 9.6 4 17.4 3.9 8.1 0 15.5-2.2 25.6-7.4 27.1-14.1 47.5-39.7 47.5-59.6 0-3.4-.2-3.3-4.7 4.4-5.9 10.2-15.5 19.9-21 21.4-5.1 1.4-10.3-.1-10.3-3.1s1.3-4.8 12.1-17.5c18.5-21.6 22.5-29 30.4-56.3 3.1-10.6 5.4-19.4 5.3-19.6-.2-.1-2.6 4.3-5.3 9.8zM477 240.4c0 8.7-4.9 25.6-11 37.9-6.2 12.4-12.7 21.2-25.3 34.6-18.2 19.1-25.4 30.2-30.3 46.8-3.1 10.8-3.6 25.9-1 36.8 2.6 11 10.6 26.5 17.1 32.9 8.4 8.5 22.6 15.6 38 19.1l6 1.4-3-2.2c-13.2-9.6-18.8-30.4-13.4-49.7 2.7-10 11.3-27.3 15-30.5 5.5-4.6 8.1-3.2 17.7 9.5 5.1 6.9 16.7 18.2 24.4 23.8 7.4 5.5 8.8 8.2 8.8 17.6 0 12.5-3.4 24-8.4 29.1-2.9 2.9-3 2.9 4.4 1 23.5-6.1 45.4-25.5 50.9-45 8.5-30.5-4.7-82.4-29.5-115.4-4.4-5.9-8.6-9.2-10-7.8-.3.3-.1 5.3.6 11.1 1.3 11.8.7 19.9-2.1 29.3-3.2 10.2-10.7 16.3-16.4 13.3-4.8-2.6-5.9-7-6.6-27-.6-15.9-1-19.8-3.3-27.5-3.1-10.5-10.8-26.9-16.5-35.4-5.2-7.6-6.1-8.1-6.1-3.7z" />
  <path
    d="M60.8 365.6c-11.7 26-17.9 51.7-16.4 67.8.9 9.8 2.3 15.1 6.4 23.6 7 14.4 27.2 30.9 44.5 36.2 9.9 3 20.3 2.3 29-2 10.7-5.3 20.5-17.3 23.7-29.1 2.4-9.2-2-12.8-5.4-4.4-4.4 10.7-15.9 17.6-29.6 17.7-6.5.1-8.2-.3-12.3-2.7-8.2-4.8-12.9-14.7-10.7-22.6 1.3-4.8 9.8-16 14.8-19.4 4.9-3.4 11.3-5.6 18.4-6.4 3.2-.3 5.5-1 5.2-1.4-.3-.5-4.6-3-9.5-5.5-14-7.2-20.2-12.2-23.4-18.8-2.6-5.3-2.7-6.3-2.3-15.1.3-5.2.4-9.5.2-9.5-.1 0-1.7 4.4-3.5 9.7-3.9 11.6-4.5 21.6-1.6 27.2 2.7 5.3 2.3 10.7-1.2 14.2-3.4 3.3-4.8 3.5-11.8 1.4-13.5-4-17.4-19.5-12.9-51.8 1-7 1.6-13.2 1.4-13.8-.2-.7-1.6 1.5-3 4.7zM376.5 467.6c16.1 11.6 43.6 21.1 74 25.6 12.1 1.8 57.9 1.8 70 0 30.4-4.5 57.9-14 74-25.6l5-3.6h-228l5 3.6z" />
</svg>