<svg width="2410" height="2019" fill="none" xmlns="http://www.w3.org/2000/svg">
  <path d="m879 0 5 29 22 6-13-18-14-17Zm7 50a7110 7110 0 0 1 31 199l9-2c7-3 10-4 27-23 44-47 41-43 40-49-1-4-3-8-9-14l-9-9-6-21-6-21-22-30-23-29-8-1-17-2c-7-1-8 0-7 2Z" fill="#000"/>
  <path d="M975 131c-1 2 0 5 2 12 4 10 5 10 17 21 7 5 11 7 12 6l-13-20-15-20c-1-1-2 0-3 1Zm808 57-7 4 1 7 1 6-10 10c-10 9-10 10-21 32-9 21-11 24-16 28-8 5-8 6-8 14 0 5-1 8-3 12l-3 4-9-11-8-11c-2-2-8 2-10 5-1 3-3 4-7 4-11 2-17 6-24 14-7 10-8 12-7 24 1 10 3 13 12 19l6 4 5-5c2-3 5-6 7-6s2 1 0 6l-2 8c0 3 15 33 18 36 2 1 1 2-6 10l-8 11 4 6 3 5-4 1-4 3 7 4 13 8c5 5 5 6 4 9l-2 4-8-6c-8-6-8-6-12-4l-4 3 3 7c3 7 3 7 1 11-2 3-2 4 0 8l4 4 12 2 11 3 7-5c6-5 9-6 16-6l14-4 5-4 3 4c2 3 2 3-6 8l-7 4 10 2c7 1 9 1 16-2 9-4 10-4 11-10l2-6 2-53-13 5-13 4c-1-2 12-14 16-15 3 0 5-3 8-6l3-5 2-81 2-104v-23l-7 4Z" fill="#000"/>
  <path d="M1740 200c-4 3-4 3-8 1-3-3-4-3-8 0-6 3-30 33-35 43l-2 6 8 7 13 10 6 3 11-12 10-12-4-2c-7-3-8-5-1-12 5-6 7-10 11-21l4-14-5 3Zm-777 42c-10 7-16 10-21 11-6 1-7 2-8 5l-1 4 7 2c6 1 9 1 18-1s11-2 15 0l6 2 12-9 13-11-3-4c-1-2-4-4-12-5l-12-3-14 9Zm104 37c-7 3-13 8-12 10 0 1 17 2 20 1 4-1 4 0 6 5 0 4 3 9 6 12 5 7 5 7-5 5-6-2-8-3-11-8l-5-6-44 24 2 17 3 16-3 16c-6 29-9 38-18 55l-9 16 1 13 1 13-5 2c-6 3-6 4-4 10 3 6 3 5-13 8-8 1-10 2-9 3l1 5c1 2 15 15 32 29l31 26 10 1 28 2 18 1 2 5 2 8 16 11 14 9 3-4 30-34 27-31 5 1 4 2 1-9c3-17 2-16 15-21a62 62 0 0 0 25-21c0-1-91-124-93-125-1-1-5 2-9 7l-7 7-5-4c-11-11-10-10-18-7l-8 3-7-5-10-5c-2 0-5-5-5-10l7-4 4 6 4 7h9c14 0 33-6 33-11l-19-27c-24-32-25-32-41-24Z" fill="#000"/>
  <path d="m964 302-7 6h-16c-14 0-15 0-15 2a14484 14484 0 0 1 25 157c1 5 6-2 19-27 9-17 15-29 20-34l7-8-2-6-3-8 9-7 9-6-3-2-8-7-5-3 6-11 5-10-3-8c-2-8-4-9-28-31-2-2-3-2-10 3Zm634 97-3 5 6-1c4 0 7-1 7-2l-3-4-4-4-3 6Zm2 13-11 3-65 118a563 563 0 0 1-70 118l-11 2c-8 1-8 1-10 4-1 4 0 5 4 9s6 8 8 17l5 14c2 2 5 13 3 12l-6-4c-5-3-6-5-11-20-6-20-11-31-14-31a651 651 0 0 0-43 4h-5l-64-84-63-85h-6c-8 0-20 12-34 33-10 17-11 18-16 18l-8 2c-2 0-9 8-21 21-24 28-23 25-18 30l4 10 1 7h20l2 5c1 5 3 7 15 17 14 11 15 12 21 12h7l34 31 33 31h11l16-2c3 0 6 0 8 2 2 1 2 2-1 6l-3 5 14 15 13 15-1 8c0 6 0 9 3 16 2 8 3 9 11 15 9 5 10 5 35 10l28 4 12-13c7-8 14-14 20-18l9-6-2-21c-1-19-1-21 1-24s2-3 3 8v10l5 1c3 0 5-1 12-10 5-6 10-10 12-11 4-1 5-3 8-10 3-9 3-8-8-10-8-1-7-2 6-4l9-2-1-4-2-7c0-4 11-12 22-15 14-3 13-3 8-10l-7-11-2-4 5 1 9 6c7 7 11 8 19 2 4-2 11-9 17-15 8-10 11-12 21-16l11-5 4-10 5-10 11-4c10-5 11-5 16-14 8-13 16-29 16-33 1-4 1-4 8-3l7 1 2-11c3-13 3-13 0-23-2-7-3-9-12-17l-9-9-2-22-1-21-8-12c-9-12-12-14-15-7l-1 5-6-7-6-6-11 3Zm170 72c-11 4-41 18-43 20-1 0 1 6 5 12l6 11-2 6-2 6 8 4c10 3 11 6 6 13l-2 4 7 8c5 6 8 8 11 9l4 1-4 7-5 7 11 15 10 14 1-13a2443 2443 0 0 0 3-128l-14 4Zm-809 49 19 125 18 119c2 1 10-6 12-9 0-3 2-4 3-4l13-2 12-2 29 6 29 6 1-7 1-7 12-3 12-2 28-28c19-20 29-28 34-31l7-4v-7c-1-6-1-7-15-21-13-12-24-21-28-21l2 5 2 6c0 1-15 0-16-2l-1-4-4-11c-4-7-5-8-16-14-10-5-14-8-26-21-12-12-16-15-22-17l-7-3-5 5-6 4-8-10c-7-9-8-10-44-31l-37-22 1 7Zm1150 67-119 72 3 15c5 16 5 17 2 25-2 5-2 5 0 9 3 5 17 9 28 9s17-3 34-17l15-13c2-2 3-2 9 1l7 1 19-22 16-4 15-2 1-11c1-9 1-10 5-12s4-2 2 7c-3 8-3 9 0 8 2 0 84-135 83-136l-120 70Z" fill="#000"/>
  <path d="m1671 554-12 12-19 36c-14 27-20 37-24 41-6 6-6 6-13-7l-3-7-30 26-4 14-5 14-4-6-9-9-4-3-5 4-7 6 5 21 6 21 12 11 27 29 16 18 13 4 13 4 7-2c7-2 9-2 17 0l15 1c6-1 6-1 9-8l6-16 5-15c2-6 4-8 16-21s15-16 15-20c2-9 2-10 11-15l9-5 6 6c6 6 6 7 3 6l-8-2c-5-1-5 0-7 6-2 4-4 6-6 7h-3l4 4 5 4-6 1-7 2-2 12c-2 12-2 13-8 18-5 4-9 9-15 20-6 10-13 21-22 30l-12 15-3 19-3 19 9 5 8 4 16-4c8-2 21-5 27-8l13-4 40 25 37 25 12 1h11l4 13 4 12 14 12 13 11 15 5c14 3 17 4 22 3l7-1c2 0 43-46 45-51l2-4-8-8-8-8 12-5 11-6 8-22 9-23-4-7-3-7 6-8c9-12 10-17 5-25-5-7-5-8-2-12l2-3-6 1-9 2c-2 1-2 0 2-3l3-4-2-4c-7-8-20-22-22-22l-9-9c-4-5-7-8-9-8a1202 1202 0 0 0-96 58l-9-4-9-5-12 6-9 5-5-4c-4-3-7-4-13-4-5 0-7 0-7-2-1-2 1-3 17-4l7-1-4-14c-4-12-5-14-4-24v-10h-5c-5 0-5 0-3 4 1 4 1 4-4 8l-9 6 4-15 4-15-7-34-7-36-12-8-12-8-2-20-3-20-10-9-10-9-4 4c-4 3-6 3-8 0-1-2-1-3 1-5s2-2-3-6l-7-4-13 12Z" fill="#000"/>
  <path d="M1771 669c0 5 1 7 4 10l4 4v-7c0-5 0-7-4-10l-4-4v7Zm360 20c-2 5-3 6-10 11l-9 5 4 4 5 4 18-30-3-1c-3 0-4 1-5 7Zm-956 23c-32 32-59 73-59 89 0 7 1 7 16 28 12 16 17 24 21 33l8 18c3 5 3 6 1 7-6 2-7 1-22-20-7-12-16-24-19-27-4-6-4-6-2-9 4-4 1-8-16-17l-15-9-5 5-8 4-6 1a916 916 0 0 0-143 181c0 5-1 7-5 12-6 7-10 16-14 31l-3 12 4 4c4 4 4 8 1 20l-7 33-5 25-8 8c-5 5-9 8-11 8-5 0-4 6 2 12l5 6-1 15c0 14 0 15-7 27-5 12-6 13-4 16s2 3 0 8c-4 6-4 11 0 31l3 16-8 17c-12 24-12 26-8 53l6 48 3 31a708 708 0 0 0-16-37l-21-63c-5-15-7-21-13-26-5-6-9-6-14 0-8 7-13 22-13 36 0 7-19 61-28 78a1466 1466 0 0 1-44 142c-2 10-2 10-14-3a471 471 0 0 1-78-113c0-2 8-6 23-12 20-7 27-12 37-23l13-15c3-5 4-5 2-11l-7-17c-4-9-7-13-16-22-17-16-36-25-84-38l-23-6c-5-1-12 6-14 14s-2 27 0 43v26c-2 23-1 50 1 60v14c-4 8-4 26-1 48l3 25c1 3 0 5-2 8-5 6-6 10-6 22l-2 17c-1 4 0 5 3 9l7 7c5 2 19 1 26-3l6-3v-61c-1-45 0-60 1-60 6 0 16 10 25 24a806 806 0 0 0 33 51c5 15 9 23 17 31l11 14c4 4 7 7 9 7 1 1 6 0 11-2 9-3 13-6 15-14 1-5 1-5 2-1 0 5 3 12 7 15 3 3 5 3 9 3 10-2 12-5 24-45 20-69 25-85 27-86 1-1 5 0 10 1l25 2 20 1a1273 1273 0 0 1 62 137 953 953 0 0 0 88 174c11 16 20 28 45 55a193 193 0 0 0 68 55c0-2-19-24-38-41-22-20-70-82-89-115-6-10-9-13-13-15l-6-4 1-9 1-9-10-17c-6-9-12-19-13-23-2-5-2-6 0-8l3-4a138 138 0 0 0-17-37l5 1 4 2v-5c-1-4-1-4-7-5l-9-2-3-1 3-2c2-2 5-3 12-3h9l-3-9-3-9-6-1-7-1 2-6 3-16c1-13 3-15 8-15h4l2-15c2-12 2-32 3-93l1-78-3-8c-3-9-3-13 1-33l1-4 12-1 18 2c6 1 6 1 6 6l2 21 1 15-4 4c-7 8-8 13-8 30 0 12 0 17 2 19a2754 2754 0 0 1 81 27l1-12 2-36 3-25-3-5c-3-5-3-7-3-23 0-21 1-24 9-27 4-2 5-1 18 5l14 7-1 5-7 85c-4 56-2 115 4 149 2 12 2 28-1 34-3 7-13 10-28 8-4-1-5-2-6-9-1-5-2-20-1-54l-1-50c-3-6-66-36-77-36l-2 2-2 26c-3 31-4 82-3 88a343 343 0 0 0 55 79l30 31 13 13 2 15c3 18 3 18 7 19 7 1 14 11 15 19 0 6 0 7-2 10l-4 4 9 19c6 9 11 19 11 21 2 4 2 4 8 4 6 1 6 1 7-4s1-5 7-4c2 1 4 4 7 12l6 14c2 4 2 4 7 2 2-1 6-3 7-5 3-2 3-2 31 19 17 13 31 23 36 25 5 3 8 4 11 10l5 7 4-5c3-3 5-7 5-9v-3c2 0 14 5 20 9l12 3c4 0 5-1 7-6 2-6 2-7 0-10-2-1-5-12-7-23l-5-22c-1-2 0-3 4-3 5 0 7 2 18 11l13 11v8c0 7 0 9-3 13-2 3-3 5-2 10 1 6 1 7 10 11l8 5 10-3 9-3 12 12c10 10 13 13 17 22l5 11 6 1 11 1c5 0 5 0 5 5 0 3 1 5 2 5 5 0 15-5 22-12s8-7 16-8c6-1 8-1 13-6 14-13 10-12 53-21l40-8 7-10c6-7 8-9 12-10h5l2 7c1 5 1 6 8 9l7 4 6-7c6-6 6-7 5-12l-1-6 16-9 18-8 6 8 6 8 27-11 27-10 6 7c6 6 7 6 10 5 3 0 7-3 11-7 5-7 6-8 10-7s5 2 7 10l4 10c1 1 13-4 25-11l29-16 17-8 37-36 37-37 53-93a10029 10029 0 0 0 60-111l2-9 41 1 42 1 2 18c1 16 1 16 6 19l4 2 5-11c4-8 6-13 6-19l2-9a1417 1417 0 0 1 114 1l3-9c3-8 3-9 11-15 7-5 9-7 9-10l1-8v-4l5 7 4 7v-24h6c4 0 7-1 11-4l5-4-93-52-95-53-4-14-7-27-5-15 3-18a501 501 0 0 0 9-52l74-41 73-41-2-21-2-20-6-3c-9-4-9-7 0-13 4-2 7-4 6-5l-19-18-20-17-28 1-74 2h-47l-4-9-4-9-13-6c-8-4-18-7-22-8-9-2-9-2-17 1-6 3-9 6-21 20-14 19-14 16-11 38l2 14-6 19-5 19 8 11 7 12-4 4-4 5 5 5 5 6-1 13c-3 18-3 18 3 22 5 3 5 3 3 7-1 3-3 4-6 4l-6-2c-2-2-3-2-7 6l-5 7 20 2 20 1 1 4c1 3 1 3-5 4-11 2-14 2-15 4s-1 2-4-1l-3-3a1014 1014 0 0 0 9 46l-6-8-6-8c-1-1-4 3-8 8l-3 5 2 5 3 6-3 7-3 7 3 21c3 18 3 22 2 27v9c1 4 1 6-1 10-2 5-2 6 0 9l4 6c2 1 1 1-6 1l-8-1 3-13 3-11-6-10c-4-6-8-16-11-23-5-12-5-12 1-16 2-1 2-2 1-9-1-6-4-11-10-22l-9-14-10-3-10-2-15-17-14-17-17-8c-15-7-19-10-28-19l-9-10 14 7 22 11c6 2 10 5 18 13 10 10 12 11 25 16l14 6 6-2c5-2 7-4 14-14l7-12-2-13-5-17-2-5 4-6 5-6-4-14-4-16 4-9c3-4 4-8 3-8l-18-2-18-1-3-4-3-5c1-1 25 2 28 4 4 2 6 1 6-4l1-8 1-4 7 6 8 5v-6c0-5 0-6-6-9-10-4-10-5-6-12l3-6-3-5-3-5 8-14c7-12 9-16 10-24l2-10-7-10c-7-10-7-11-8-22l-2-13c-2-4-19-14-27-16l-9-2-6 4-6 5-15-11c-16-11-16-11-19-9-4 2-4 2-7-1-3-4-5-8-5-12 0-3-2-4-12-9l-11-6-12-17a75 75 0 0 0-23-26l-11-8-19-3c-17-2-21-2-43-1h-31c-7-2-6-2-26 16-9 9-10 10-10 15 0 4 2 9 8 20l7 14-2 4-3 5 7 12 8 11-4 7c-3 6-3 7-1 14l1 8-13 22c-17 28-23 43-24 65l-1 15 6 8c5 6 6 8 6 13v6l9 5c7 4 10 6 13 12l6 7 3-3c2-3 3-3 10 1l5 4 23-11 22-12 15 2 15 2 5-5c5-5 6-6 4-7-2-2-3-2-8 0l-6 2v-4c0-2 2-4 7-8s7-4 8-3l1 3 1 1 3-16 2-17-4-4-3-3 6-5c3-2 7-4 10-4 5 0 5 0 1 6-2 2-2 4-2 5l6 4 5 4-6 7c-6 7-7 8-9 22l-3 16 4 7 5 6 6-6 6-6 8 8 7 9-6 10c-9 13-8 13-46 8l-32-4s-6 5-11 12l-10 12h-8c-5 1-11 0-15-1-7-2-8-2-9 1-11 15-12 17-22 22s-10 5-22 22l-11 18 7 7 6 7-3 5-4 4 5 10c3 6 7 13 13 19s8 9 8 13c0 2 0 4 2 4 7 0 30 14 38 23 13 14 22 33 27 56 2 12 5 55 5 84 1 30-27 78-59 102-35 27-76 28-115 3a87 87 0 0 1-40-42c-19-39-21-93-5-148 8-27 10-32 19-39 19-15 26-21 29-25 2-3 5-6 14-9 21-10 45-13 68-9l10 1-3-5c-10-10-16-20-24-38l-9-23-1-7c-1-4-1-4-9-4h-9l-15-15-14-13-9 13-9 12-7-7-7-9 4-7 4-5-4-6-4-8 4-4 3-3-11-9c-10-7-10-7-22-8-11-1-13-1-23 2l-10 3-11 14c-9 12-11 14-14 14s-4-1-4-3c0-4 4-12 9-18l33-55c3-5 8-14 13-19 12-14 14-17 13-22l-3-7c-3-5-3-9 1-11 4-1 10 1 12 4s2 3 5 1c2-1 5-7 8-14 7-14 16-26 27-33 9-7 31-18 32-17 2 2 0 7-2 11l-13 12-18 18-9 10 3 3c3 5 3 8-1 10-7 3-12 13-8 18l10 6 12 5c2 2 3 2 6 0 2-1 3-3 3-5 0-3 4-3 8 0l12 10 12 9c4 3 4 3 4 0l-7-11c-9-11-10-14-1-16 10-2 19-16 17-27-1-4-2-5-6-7-4-1-4-1-2-3 3-2 3-3-3-6l-6-4 5-4 9-12 5-8-3-4c-3-6-3-15 1-22 2-4 2-4 0-7l-6-6-4-3 7-9c5-6 7-11 9-17 4-14 4-15-3-16l-5-2-3-21c-1-15-2-24-1-32 0-11 1-12 4-13 2 0 3 0 4 5 1 8 5 17 7 18 5 1 7 0 14-10s7-10 7-20c0-8 1-10 5-17l4-10c0-2-24-22-48-40l-25-17v-8l-3-12c-3-3-24-19-27-19l-3 1c-1 2-5 2-7 0-2-3-15-3-21 0l-12 14c-7 10-9 14-12 26l-4 16 5 8 5 6 20 1c15 2 20 2 23 4 1 2 3 3 2 4l-20 2c-28 3-41 8-55 20l-10 9v10c0 17 5 27 21 48a708 708 0 0 0 26 32c-1 0-11-5-23-13l-23-13-3-19c-5-26-10-37-26-51-13-11-15-12-23-5-4 4-5 4-8 3l-3-3c0-5-2-6-16-4-10 1-20 4-35 8l-22 7-5 11c-6 10-6 11-6 21 0 9 0 10 3 13l4 4 2-5 1-9c0-6 2-8 6-6l4 2-1 18-1 18-6 6c-6 7-6 9-1 13 2 2 2 2-1 5-2 3-4 3-10 3h-7l3 4 3 3-14 18a85 85 0 0 0-18 34l-9 33-3 17-8 2c-12 2-17 4-24 11-4 3-6 7-7 11-2 6-2 6 3 10l5 4 1 3v4h-30l-8-8c-7-6-8-8-9-13s0-6 4-10l4-8c-1-1 0-6 1-10l2-7 8-1c9-1 12-3 12-6 0-8 1-9 11-10l10-3 2-17v-17l7-1c6-2 6-2 23-25l18-25c1-2 0-3-2-5l-4-3 9-2 10-3v-6c1-5 0-9-3-18-5-12-6-20-3-26 1-3 1-3-2-6-4-5-3-8 5-15 6-4 9-8 12-15 5-9 5-10 12-12l6-3 2-8c2-7 1-9-1-17s-2-9-6-10-6-3-7-6c-2-4-2-5-9-4s-9 0-9-7c0-4 0-4-12-10-9-4-13-7-15-10-2-4-2-4 0-7s2-4 0-6c-2-3-35-14-46-15l-5-1-1 5c-1 4-1 5-4 4-4-1-6-4-6-8l-2-8-3-4-19 19Zm75 590c8 9 8 12 2 22-6 11-13 18-33 40a558 558 0 0 0-51 64l-7 6h4a307 307 0 0 1 68-14c10-1 10-1 13 4 3 4 4 5 4 16v11l-8 4c-10 4-29 9-57 13l-24 5 10 10 32 31 39 35 16 13-1 5c0 3-2 7-4 10-4 5-13 12-17 12s-14-6-17-10l-15-13c-33-27-67-60-92-91-18-22-18-18-3-36 8-10 14-20 17-26 5-10 7-12 17-20l34-38 34-38c12-11 26-21 30-21 2 0 5 2 9 6Zm60-4c3 1 3 2 2 6l-1 20c0 13 0 16-3 20-2 5-2 8-2 20l8 186 14 2c7 0 16 2 19 3 5 2 7 2 20 1 19-3 22-3 30 1 11 6 12 7 10 10l-3 8c-1 5-3 7-7 10l-5 4-58 1h-57l1-6c2-10 1-25-2-62-3-40-3-53-1-73 1-12 1-23-2-70-3-64-3-64 6-72 14-10 21-13 31-9Zm142 0c3 1 5 3 5 5a937 937 0 0 0-8 179c1 91 1 97-2 102-4 9-15 8-21-3l-4-6-1-46a4140 4140 0 0 1 0-191c-2-5-2-10-2-21-1-12 0-13 3-16 2-3 4-4 13-4l12-1 5 2Zm373 3c10 3 11 4 11 7 0 5-5 22-8 28s-9 12-13 12c-2 0-8 7-20 25l-22 32-4 5 12 13c22 23 46 58 46 67 0 7-5 15-18 28-20 20-22 22-24 28l-6 7-19 17c-20 20-28 23-41 18l-4-2 1-8c1-18 13-33 33-45 17-11 30-22 37-32 5-8 5-9 5-16l-1-8-13-12c-20-19-38-37-43-44-8-13-7-21 5-36l19-25c11-17 53-65 55-64l12 5Zm-1210 51c11 1 20 5 30 12 6 4 23 20 23 22a462 462 0 0 1-75 38v-33c0-38 1-42 8-41l14 2Zm205 48a288 288 0 0 0 6 26 345 345 0 0 0-30 4c-1-1 9-31 14-41 3-6 4-8 5-6l5 17Zm1112 143-5 3c-2 0 1-5 5-8s4 0 0 5Zm-35 48-12 20c-8 14-11 19-17 23-5 3-6 6-8 11-2 6-4 8-13 15l-26 23c-8 8-19 16-25 20-16 10-15 9-13 7 3-5 6-9 19-19a482 482 0 0 0 97-103l-2 3Zm-626 113-4 3c-3 0-3 1-4 6 0 7 0 7 4 7 3 0 4 0 4 2 0 1-1 2-4 2h-4v21c-1 18-1 21-3 21-2 1-2-1-3-21v-21h-4c-2 0-3-1-3-2l3-3c4 0 4 0 4-7 1-8 4-11 10-11 3 0 4 1 4 3Zm37 3c0 3 0 4-2 3l-3-4c0-3 0-4 3-4 2 0 2 1 2 5Zm235 7v11l5-3c6-4 13-5 19-1l6 6v21c0 15 0 18-2 18-2 1-2-2-3-18 0-16-1-19-3-21-4-4-13-4-18 0-3 3-3 4-4 21 0 15-1 18-3 18-2 1-2-2-2-31 0-32 0-33 2-33 3 0 3 1 3 12Zm-177 7c0 2-2 3-4 4-8 2-10 6-11 25 0 14-1 17-2 16-2 0-3-3-3-23 0-23 0-23 2-23s3 1 3 3v4l2-3c5-5 13-8 13-3Zm58 0c6 4 10 10 10 17v6h-34l1 5c1 8 7 13 14 13 6 0 11-3 13-8l3-2c4 0 2 4-3 10-3 3-5 4-11 4-10 1-16-2-19-9-4-8-4-24 1-30 5-8 17-11 25-6Zm68-1c7 3 12 13 6 13-2 0-3-1-3-2 0-4-5-7-11-7-7 0-10 2-10 6 0 5 3 7 14 11 11 3 14 6 14 13 0 8-5 11-16 12-9 1-10 1-14-4-5-5-7-10-2-10l3 3c2 10 23 9 23-1 0-4-3-7-14-10-10-2-14-5-14-12 0-6 2-9 7-12 6-2 11-2 17 0Zm151 2c12 9 11 35-2 42-6 4-19 3-24-2-5-4-7-10-7-19 0-12 5-21 14-24 5-1 15 0 19 3Zm-335 21c0 22 0 24-2 23-2 0-2-3-3-23 0-23 0-23 3-23 2 0 2 1 2 23Zm383-6 5 19c0 4 2-1 7-18 5-16 5-18 8-18s4 2 8 18l6 18 6-18c4-15 6-18 8-18l2 1-7 24c-6 18-7 21-10 21-2 0-3 0-8-22l-5-14-6 18c-4 17-5 19-8 18a1013 1013 0 0 1-17-46h3c2 0 4 3 8 17Zm-583 15c0 3-1 6-4 9l-5 4-4-5-4-5 4-3c2-3 4-4 8-4 5 0 5 0 5 4Zm389 95-4 4-1-4c-2-6-1-7 4-6l4 2-3 4Zm-31-1 4 5-4 3-6 4-2-4c-1-4 0-13 2-13l6 5Z" fill="#000"/>
  <path d="M1407 1725c-3 2-7 8-7 12 0 3 1 3 14 3 14 0 14 0 14-3 0-4-3-10-6-12s-12-2-15 0Zm215 1c-7 5-9 19-5 28 5 11 20 11 26 1 2-3 3-6 2-14 0-9 0-10-4-13-5-5-14-6-19-2Zm469-1006c-8 6-15 10-20 11l-16 5-9 3 7 8c6 7 6 7 10 5 5-2 5-2 5 2 0 2-1 3-3 4-4 1-4 1 7 11l10 9 17-28c18-30 19-32 13-36s-8-4-21 6Zm-89 23c-2 0-3 2-3 2l5 17c4 15 5 16 10 21l7 6-9 8-8 8-3 17-3 18 5 3 4 3-5 27c-5 28-5 30-3 36l2 4 38-63c31-52 37-63 36-64-16-15-16-15-27-16l-10-1-1-5c-1-5-2-7-10-13-11-9-18-12-25-8Zm-989 34-9 5c-5 4-4 18 0 20h9l5-2-7 7-7 7 1 10 2 11c2 2 21-5 39-13l18-9 5-9c7-11 7-10-4-16-14-7-30-13-38-14-6-1-8 0-14 3Zm445 2c-3 3-4 5-4 9 0 9 1 10 6 4 4-5 5-9 3-15-1-3-1-3-5 2Zm-594 12c-24 9-35 43-21 70 6 14 14 19 30 22l5 1-1-5-3-6c-3-3-4-6-2-7 1-1 5 1 9 2l8 4-3 3c-4 2-4 2 2 5 4 2 5 2 7 1 6-3 8-6 8-9s5-8 8-8c2 0 14-13 17-20 3-5 4-8 4-16 0-16-8-28-25-35-8-4-10-5-22-5-11 0-14 0-21 3Zm1068 138c-5 3-7 5-14 16l-8 12 11 15 11 14c1 0 4-6 6-14a242 242 0 0 1 9-23l-8 1-6 1 5-9c6-8 6-9 4-12-3-4-2-4-10-1Zm50 17 1 10 3 6 4 4-4 3-5 3 5 5c4 3 7 4 10 4 8 0 9-1 5-10-2-7-18-33-20-33l1 8Zm-785 87c-4 0-6 5-5 9 1 5 3 5 7 1 4-2 4-3 3-7l-1-4-4 1Zm1108 7-73 2 5 5c5 6 6 6 25 11l19 5 10-3 9-2 5 4 4 5-11 4c-9 2-11 3-19 10-8 8-9 9-12 18l-3 11 4 3 4 2 137-76c1-1-1-1-104 1Zm-810 46c-4 5-5 7-5 11l-1 10c-1 4-2 5-6 6l-5 2c0 3 17 23 22 27s6 4 14 4h8l-1-5-1-5 7-1c6 0 8-1 10-3l2-4-4-7c-4-6-5-7-11-8l-6-2-2-9c-2-9-4-10-14-19-3-2-3-2-7 3Zm-705 23c-7 3-6 10 2 14s18 1 18-5c0-2-7-9-10-9l-4-1-6 1Zm815 15c-8 3-8 5-2 8 3 1 16-1 16-3l-4-4-3-4-7 3ZM12 1301c-5 3-7 4-8 7-1 6-1 36 1 54 3 25 3 50 0 104-2 25-4 63-4 86l-1 41h12c10 0 12 0 13-2 3-5 13-10 27-13l14-4 16-15 37-31c64-50 76-60 79-68v-9c-1-8-40-51-63-70l-12-12c-7-14-21-24-55-42-24-12-32-17-39-24-4-5-7-6-17-2Zm43 65 22 13 14 7c6 5 60 69 60 71s-3 4-55 47c-35 29-43 35-49 37l-8 1-1-21c0-16 1-21 3-29 3-7 3-10 2-14s-1-8 1-14c4-17 4-20 1-33-2-10-2-21-3-43v-30l13 8Zm169-67c-9 1-10 1-13 4s-3 5-3 17c0 10 1 16 3 21a4140 4140 0 0 0 0 191v46l4 6c7 11 17 12 22 2 2-4 2-11 2-101a937 937 0 0 1 8-179c-1-4-8-8-11-7h-12Zm108 24a509 509 0 0 0-50 65c-12 15-14 23-5 35 4 7 22 25 42 44 13 12 14 12 15 19 1 6 0 8-3 14-6 10-19 22-35 32-24 15-36 30-38 49l-1 8 5 2c12 5 21 1 41-18 8-9 17-16 18-17 2-1 5-4 6-7 3-6 5-8 25-28 13-13 18-21 18-29 0-9-24-44-46-66l-12-13 4-6 22-31c12-18 18-26 20-26 3 0 10-6 13-12s8-23 8-28c0-3-1-3-11-7l-12-4c-1 0-12 10-24 24Zm187-21c-15 9-28 22-64 65a274 274 0 0 1-30 31c-7 7-10 11-12 16-3 9-6 13-19 29l-11 15a475 475 0 0 0 103 106l19 18c8 9 15 11 22 8 6-3 12-9 15-14 4-9 3-11-8-20s-65-58-81-74c-8-8-12-13-15-20l-5-9 4-5 13-14 12-13 12-16 9-14 19-22c28-29 41-46 41-54 0-3-12-17-15-17l-9 4Zm1074 43-7 2c-1 1-5 2-7 1l-24 4-18 5-7 12c-9 14-13 23-18 36l-4 10 1 21c1 15 0 22-1 27-1 6-1 7 2 14l10 26c3 11 7 21 9 23 6 11 22 17 44 19 22 1 41-4 45-12 2-4 2-5 9-5l10-3c25-31 32-54 24-79-3-7-3-7 0-15 4-15 7-31 6-35-5-17-27-43-42-48-8-3-25-5-32-3Zm763 157c0 4 0 4-2 4l-18-3 4 4c3 3 4 5 4 8v5h8c6 0 7-1 9-3l1-3 2 3c2 2 4 3 18 3l15-1-40-22-1 5Zm-311 97-8 8 7 1c7 1 7 1 13-4l10-9 3-3h-8c-8 0-8 0-17 7Zm-309 251c0 3 1 3 6 3 4 0 5 0 5-3 0-2-1-2-5-2-5 0-6 0-6 2Zm-153 36c-2 1-3 3-3 9l1 7 6-3c5-2 6-3 5-7-2-7-2-8-9-6Zm-451 31c17 17 29 25 42 29 8 2 15 6 27 13 20 13 18 12 70 30a233 233 0 0 0 84 19c0-3-12-10-19-11a935 935 0 0 1-174-76l-24-17h-10l-10-1 14 14Zm240 91c-5 1-9 3-7 4 2 3 31 6 44 6h14l-3-5c-3-4-4-4-17-4l-19-2-12 1Z" fill="#000"/>
</svg>